<?xml version="1.0" encoding="utf-8"?>
<!-- Generator: Adobe Illustrator 22.0.1, SVG Export Plug-In . SVG Version: 6.00 Build 0)  -->
<svg version="1.1" id="Capa_1" xmlns="http://www.w3.org/2000/svg" xmlns:xlink="http://www.w3.org/1999/xlink" x="0px" y="0px"
	 viewBox="0 0 475.8 475.8" style="enable-background:new 0 0 475.8 475.8;" xml:space="preserve">
<path d="M309.8,272.4H166c-4.1,0-7.5,3.4-7.5,7.5v76.8c0,17.4,14.1,31.5,31.5,31.5h95.9c17.4,0,31.5-14.1,31.5-31.5v-76.8
	C317.3,275.8,314,272.4,309.8,272.4z M285.8,373.2H190c-9.1,0-16.5-7.4-16.5-16.5V312h95.6c4.1,0,7.5-3.4,7.5-7.5s-3.4-7.5-7.5-7.5
	h-95.6v-9.6h128.9v9.6h-8c-4.1,0-7.5,3.4-7.5,7.5s3.4,7.5,7.5,7.5h8v44.7C302.3,365.8,294.9,373.2,285.8,373.2z M387.4,448.4
	l-15.8-222.6c-0.3-3.9-3.6-7-7.5-7c-15.6,0-29.4-10.9-33.1-26V7.5c0-2-0.8-3.9-2.2-5.3c-1.4-1.4-3.3-2.2-5.3-2.2h-28.2
	c-4.1,0-7.5,3.4-7.5,7.5V89H188V7.5c0-4.1-3.4-7.5-7.5-7.5h-28.2c-4.1,0-7.5,3.4-7.5,7.5v185.3c-3.7,15.2-17.5,26.1-33.2,26.1
	c-3.9,0-7.2,3-7.5,7L88.4,448.4c-0.3,3.6,2.1,6.9,5.6,7.8l8.1,2.1c44.3,11.6,90,17.4,135.8,17.4s91.5-5.9,135.8-17.4l8.1-2.1
	C385.3,455.3,387.7,452,387.4,448.4z M369.9,443.8c-43.1,11.3-87.5,17-132,17s-88.9-5.7-132-17l-2.1-0.6l14.9-209.9
	c19.9-2.9,36.6-18,41-38.1c0.1-0.5,0.2-1.1,0.2-1.6V15H173v81.5c0,4.1,3.4,7.5,7.5,7.5h114.7c4.1,0,7.5-3.4,7.5-7.5V15H316v178.7
	c0,0.5,0.1,1.1,0.2,1.6c4.4,20,21.1,35.1,41,38L372,443.3L369.9,443.8z"/>
</svg>
