<?xml version="1.0" encoding="utf-8"?>
<!-- Generator: Adobe Illustrator 22.0.1, SVG Export Plug-In . SVG Version: 6.00 Build 0)  -->
<svg version="1.1" id="Capa_1" xmlns="http://www.w3.org/2000/svg" xmlns:xlink="http://www.w3.org/1999/xlink" x="0px" y="0px"
	 viewBox="0 0 512.1 512.1" style="enable-background:new 0 0 512.1 512.1;" xml:space="preserve">
<g transform="translate(-1)">
	<g>
		<g>
			<path d="M510,382.3L414.4,303c-1.8-17.2-14.7-114.9-84-173.7c-30.9-25.9-69.4-41-109.7-42.9c-7.3-17.5-25.1-28.2-44-26.4
				c-18.9,1.8-34.4,15.6-38.3,34.2c-2.5,0.7-4.9,1.6-7.4,2.3c-0.2,0.1-0.3,0.1-0.5,0.1c-33.7,9.8-63.6,29.7-85.4,57.2
				C-13.1,228.1,2.8,334.6,3.5,339.1c0.5,2.9,2.4,5.4,5.1,6.5c2.7,1.2,5.9,0.8,8.3-0.9c7.4-4.5,16-6.9,24.7-6.8
				c9.2,0.5,18,3.4,25.7,8.5c0.2,0.8,0.6,1.6,1.1,2.3c3.3,4.4,77.5,103.7,142.5,103.7c2.9,0,5.8-0.2,8.7-0.6
				c24.9-3.6,52-15.2,80.7-27.5c45.2-19.4,96.5-41.3,149.2-36l53.7,9.1c3.8,0.7,7.6-1.3,9.2-4.9C513.9,388.9,513,384.8,510,382.3z
				 M396.4,296.8c-7.6-0.6-19-1.4-33-2l-1.1-8.4c0-0.3-0.1-0.5-0.1-0.7c-1.9-10.1-17.4-89.3-38.1-139
				C376.6,194.7,392.3,269.7,396.4,296.8z M180.7,76.9c7.6,0,14.9,3.3,19.9,9c-6.2,0.1-12.5,0.3-18.9,0.9
				c-8.2,0.7-16.1,1.8-23.8,3.2C162.7,81.8,171.4,76.8,180.7,76.9z M119.4,158.4c1.9-17,8.6-33.1,19.3-46.4
				c14.5-4.2,29.5-7,44.6-8.3c37.7-4.3,75.9,2.8,109.6,20.4c0,0.1,0,0.1,0.1,0.2c2.5,3.7,4.8,7.4,6.9,11.1
				c24.3,43,44.6,148.2,45.6,153.3c0,0.4,0.1,1,0.2,1.6l0.5,3.8c-34-1-68,0.2-101.9,3.6c-39.2,4.7-78.1,11.8-116.5,21.2
				C124.7,298.2,111.7,203.8,119.4,158.4z M41.6,320.8c-7.7,0-15.3,1.4-22.5,4c-2.3-29-3.4-105.8,39.5-160.5
				c14.4-18.2,32.9-32.8,53.9-42.6c-4.8,10.8-8.2,22.2-10.1,33.9c-8.4,49.7,5.8,149.5,8.5,167.4c-16.2,4.1-28.5,7.5-34.4,9.1
				C66.2,325.2,54.1,321.3,41.6,320.8z M451.7,371.3c-57.7-5.8-111.1,17-158.2,37.2c-27.6,11.8-53.8,23-76.4,26.3
				c-43.3,6.3-102.6-55.5-128.8-88.3c51.7-14.4,104.5-25.1,157.7-31.9c51.6-4.9,103.6-5,155.2-0.4l73.4,60.8L451.7,371.3z"/>
			<path d="M244.6,264.6c35.3,0,63.9-24.9,63.9-55.5c0-30.6-28.7-55.5-63.9-55.5s-63.9,24.9-63.9,55.5
				C180.6,239.7,209.3,264.6,244.6,264.6z M244.6,170.7c25.8,0,46.9,17.2,46.9,38.4s-21,38.4-46.9,38.4s-46.9-17.2-46.9-38.4
				S218.7,170.7,244.6,170.7z"/>
		</g>
	</g>
</g>
</svg>
