<?xml version="1.0" encoding="utf-8"?>
<!-- Generator: Adobe Illustrator 22.0.1, SVG Export Plug-In . SVG Version: 6.00 Build 0)  -->
<svg version="1.1" id="Слой_1" xmlns="http://www.w3.org/2000/svg" xmlns:xlink="http://www.w3.org/1999/xlink" x="0px" y="0px"
	 viewBox="0 0 364.3 409.6" style="enable-background:new 0 0 364.3 409.6;" xml:space="preserve">
<g>
	<path d="M252.6,0c5.9,3.2,7.5,8.3,7.1,14.7c-0.4,6,0.1,12-0.1,18c-0.2,5.5-4.9,8.7-8.8,5.9c-1.6-1.2-2.9-3.9-3-6
		c-0.4-6.6-0.1-13.3-0.1-20.3c-67.2,0-134.2,0-201.4,0c0,101,0,201.9,0,303.2c11,0,22,0,33.6,0c0-1.5,0-3,0-4.6
		c0-23.6,0-47.2,0-70.8c0-9.7,3.5-13.2,13.3-13.2c49.9,0,99.7,0,149.6,0c1.4,0,2.9,0,5,0c0-1.8,0-3.4,0-4.9c0-52.3,0-104.5,0-156.8
		c0-1.6-0.1-3.2,0.2-4.8c0.5-3,2.5-4.7,5.5-4.8c2.8-0.1,5,1.2,5.7,4c0.4,1.6,0.5,3.4,0.5,5.1c0,52.4,0,104.8,0,157.2
		c0,1.5,0,2.9,0,4.9c1.9,0,3.4,0,5,0c28.9,0,57.9,0,86.8,0c9.4,0,12.9,3.6,12.9,13.1c0,52.1,0,104.2,0,156.4
		c0,9.6-3.6,13.1-13.3,13.1c-86,0-172,0-258,0c-9.6,0-13.2-3.6-13.2-13.3c0-21.2,0-42.4,0-63.6c0-1.4,0-2.9,0-4.9
		c-1.7,0-3.1,0-4.5,0c-19.5,0-38.9,0-58.4,0c-11.4,0-16.9-5.5-16.9-16.9c0-97.7,0.1-195.4-0.1-293.2C0,9.2,2.8,3.1,11,0
		C91.5,0,172.1,0,252.6,0z M333.1,239.3c0,1.8,0,3.3,0,4.9c0,33.9,0,67.7,0,101.6c0,1.7-0.1,3.5-0.4,5.1c-0.7,3.2-2.9,4.7-6.1,4.5
		c-3-0.2-4.9-2-5.3-5c-0.2-1.2-0.2-2.4-0.2-3.6c0-34.4,0-68.8,0-103.2c0-1.4,0-2.8,0-4.3c-76.7,0-152.9,0-229,0
		c0,52.9,0,105.5,0,158c76.4,0,152.5,0,229,0c0-1.8,0-3.3,0-4.9c0-5.1,0-10.1,0.1-15.2c0.1-3.2,2-5.2,5.3-5.5
		c3.4-0.3,5.6,1.4,6.3,4.8c0.3,1.6,0.3,3.2,0.3,4.8c0,5.3,0,10.6,0,16c6.6,0,12.6,0,18.9,0c0-52.8,0-105.4,0-158.1
		C345.7,239.3,339.7,239.3,333.1,239.3z M33.7,315.9c0-101.5,0-202.6,0-303.6c-0.6-0.1-0.8-0.3-1.1-0.3c-4.5,0-9.1,0-13.6,0
		c-6.9,0-6.9,0-6.9,6.7c0,75,0,150.1,0,225.1c0,22.4,0,44.8,0,67.2c0,2.5,0,4.9,3.5,4.9C21.5,315.8,27.4,315.9,33.7,315.9z"/>
	<path d="M225,136.7c-0.2,43.4-35.5,78.1-78.8,77.8c-43.2-0.3-78.1-35.5-77.7-78.4c0.4-42.9,35.5-77.7,78.3-77.6
		C189.9,58.6,225.2,94,225,136.7z M113.6,130.3c22.4,0,44,0,66.3,0c-1.2-7.5-2.3-14.7-3.6-21.8c-0.1-0.7-1.1-1.8-1.6-1.8
		c-7.3-0.1-14.5-0.1-21.6-0.1c-0.2,0.9-0.4,1.1-0.4,1.4c0,2.8,0,5.6-0.1,8.4c-0.1,4.5-2.1,7.1-5.7,7.2c-3.8,0.1-6.1-2.5-6.2-7.2
		c-0.1-3.1,0-6.3,0-9.5c-8.1,0-15.6,0-23.6,0C116,114.5,114.9,122.1,113.6,130.3z M179.9,142.7c-22.5,0-44.1,0-66.3,0
		c1.2,8.1,2.4,15.9,3.6,23.5c8.3,0,15.7,0,23.5,0c0-4,0-7.8,0-11.7c0.1-5,2.3-7.7,6.2-7.6c3.7,0.1,5.7,2.6,5.8,7.5
		c0.1,3.9,0,7.9,0,12c7.5,0,14.3,0.1,21.1-0.1c0.9,0,2.5-1.2,2.6-2C177.7,157.3,178.8,150.2,179.9,142.7z M79.8,142.7
		c2.4,7.6,4.5,14.4,6.8,21.2c0.4,1,1.6,2.5,2.5,2.5c5.2,0.2,10.3,0.1,15.6,0.1c-1.1-8.2-2.1-15.9-3.2-23.8
		C94.7,142.7,87.9,142.7,79.8,142.7z M104.7,106.5c-5.3,0-10.3-0.1-15.3,0.1c-0.9,0-2,1.1-2.5,2c-3.4,6.8-5.4,14-6,21.7
		c7.1,0,13.9,0,20.7,0C102.7,122.3,103.7,114.6,104.7,106.5z M191.9,142.7c-1.1,7.9-2.1,15.7-3.2,23.8c5.3,0,10.3,0,15.4-0.1
		c0.8,0,1.9-0.6,2.2-1.2c3.6-7,5.7-14.5,6.4-22.6C205.6,142.7,198.8,142.7,191.9,142.7z M188.7,106.5c1.1,8.2,2.2,15.9,3.2,23.7
		c6.9,0,13.7,0,21.9,0c-2.5-7.7-4.8-14.9-7.3-21.9c-0.3-0.8-1.7-1.7-2.6-1.7C198.9,106.4,194,106.5,188.7,106.5z M153.1,178.7
		c0,7.7,0,14.9,0,22.5c9.7-5,14.6-13.2,18.7-22.5C165.1,178.7,159.2,178.7,153.1,178.7z M171.8,94.3c-4.3-9.3-9.1-17.6-18.8-22.4
		c0,7.7,0,14.9,0,22.4C159.2,94.3,165.2,94.3,171.8,94.3z M121.6,178.6c4.6,9.3,9,17.9,18.8,22.4c0-7.8,0-15,0-22.4
		C134.2,178.6,128.3,178.6,121.6,178.6z M121.9,94.2c6.5,0,12.5,0,18.6,0c0-7.5,0-14.7,0-22.3C130.8,76.8,126,84.9,121.9,94.2z
		 M177.3,194.9c8.1-4.3,14.5-9.3,20.3-16.5c-4.3,0-7.7-0.1-11.1,0.1c-0.8,0-1.9,0.8-2.3,1.6C182,184.8,179.9,189.4,177.3,194.9z
		 M116,194.8c-2.5-5.5-4.7-10.3-6.9-15c-0.2-0.5-0.9-1.2-1.4-1.2c-3.7-0.1-7.4-0.1-11.9-0.1C101.9,185.5,108,190.7,116,194.8z
		 M96,93.1c0.2,0.5,0.5,0.9,0.7,1.4c3.4,0,6.8,0.1,10.2-0.1c0.8,0,1.9-0.6,2.2-1.2c2.3-4.8,4.5-9.6,6.7-14.5
		c-0.3-0.3-0.6-0.6-0.8-0.8C108.7,82.9,102.4,88,96,93.1z M178.4,77.9c-0.3,0.3-0.5,0.6-0.8,0.9c2.2,4.7,4.4,9.5,6.6,14.2
		c0.3,0.7,1.3,1.4,2,1.4c3.5,0.1,7,0.1,10.5,0.1c0.2-0.4,0.4-0.9,0.7-1.3C191.1,88,184.8,83,178.4,77.9z"/>
	<path d="M202.3,317.4c0,15.1,0,30.1,0,45.2c0,7.8-4,11.7-11.8,11.7c-24,0-48,0-71.9,0c-7.6,0-11.6-4-11.7-11.5c0-30.5,0-61,0-91.5
		c0-7.3,4.1-11.2,11.5-11.2c24.2,0,48.5,0,72.7,0c7.3,0,11.2,4,11.2,11.4C202.4,286.8,202.3,302.1,202.3,317.4z M118.9,272.1
		c0,1.8,0,3.2,0,4.7c0,18.8,0,37.6,0,56.4c0,8.8-0.1,17.6,0,26.4c0,0.9,0.9,1.8,1.4,2.7c0.5-0.9,1.4-1.8,1.4-2.8
		c0.2-3.6,0.3-7.2,0-10.8c-0.6-10.2-0.1-19.8,11.7-23.8c-9.2-15.4-8-29.3,3-38.8c10.5-9,25.4-9.1,35.9-0.3
		c11.2,9.5,12.5,23.6,3.5,38.6c0.6,0.5,1.2,1,1.9,1.4c7.3,3.7,10.1,9.7,9.6,17.7c-0.3,5.3-0.2,10.7,0,16c0,1,1,2,1.5,3
		c0.4-0.2,0.7-0.4,1.1-0.5c0-29.9,0-59.8,0-89.8C166.3,272.1,142.9,272.1,118.9,272.1z M139,306.7c0,8.4,7.2,15.6,15.6,15.6
		c8.5,0,15.6-7.1,15.6-15.5c0-8.4-7.1-15.5-15.6-15.5C146.1,291.2,139,298.3,139,306.7z M133.9,362c5.1,0,9.8,0,14.6,0
		c0-9.6,0-18.8,0-28.1c-4.2-2-4.3-2.1-8,0.4c-2.3,1.6-6.1,3.4-6.3,5.4C133.5,347,133.9,354.5,133.9,362z M175.3,362.1
		c0-7.5,0-14.8-0.1-22c0-0.8-0.6-1.9-1.3-2.3c-2.5-1.7-5.1-3.4-7.8-4.8c-2.2-1.2-5.5,0.3-5.6,2.4c-0.1,8.9,0,17.8,0,26.9
		C165.6,362.1,170.2,362.1,175.3,362.1z"/>
	<path d="M260.2,283.2c-12.1,0-24.2,0-36.4,0c-5,0-7.9-2.3-7.9-6c0-3.7,2.9-6,7.9-6c24.4,0,48.8,0,73.1,0c4.9,0,7.8,2.4,7.6,6.2
		c-0.1,3.6-2.9,5.8-7.6,5.8C284.7,283.2,272.4,283.2,260.2,283.2z"/>
	<path d="M260,333.7c-11.7,0-23.4,0-35.2,0c-1.2,0-2.4,0-3.6-0.1c-3.2-0.5-5.1-2.5-5.2-5.6c-0.1-2.9,1.5-5.1,4.5-5.8
		c1.1-0.3,2.4-0.4,3.5-0.4c24.1,0,48.2,0,72.3,0c0.7,0,1.3,0,2,0c3.8,0.4,6.2,2.7,6.2,6c0,3.4-2.6,5.9-6.6,5.9
		C285.3,333.7,272.6,333.7,260,333.7z"/>
	<path d="M260.6,296.6c12.3,0,24.5,0,36.8,0c3.2,0,5.8,0.9,6.9,4.2c1,3-0.7,6.3-3.9,7.3c-1.5,0.4-3.1,0.5-4.7,0.5
		c-23.6,0-47.2,0-70.8,0c-0.7,0-1.3,0-2,0c-4.3-0.3-7.1-2.6-7-6.1c0-3.5,2.7-5.9,7.1-5.9C235.6,296.5,248.1,296.5,260.6,296.6
		C260.6,296.5,260.6,296.6,260.6,296.6z"/>
	<path d="M242.2,367.4c-6.4,0-12.8,0.1-19.2,0c-4.4-0.1-7.1-2.4-7.1-5.9c0-3.5,2.7-6,7.1-6c12.9-0.1,25.9-0.1,38.8,0
		c4.5,0,7,2.4,7,6c0,3.7-2.5,5.9-7,5.9C255.3,367.4,248.8,367.4,242.2,367.4z"/>
</g>
</svg>
