<?xml version="1.0" encoding="utf-8"?>
<!-- Generator: Adobe Illustrator 22.0.1, SVG Export Plug-In . SVG Version: 6.00 Build 0)  -->
<svg version="1.1" id="Capa_1" xmlns="http://www.w3.org/2000/svg" xmlns:xlink="http://www.w3.org/1999/xlink" x="0px" y="0px"
	 viewBox="0 0 496 496" style="enable-background:new 0 0 496 496;" xml:space="preserve">
<g>
	<g>
		<g>
			<path d="M493.7,178.3l-80-80c-1.2-1.1-2.6-1.9-4.2-2.2l-88-16c-4.3-0.8-8.5,2.1-9.3,6.4C312,87,312,87.5,312,88
				c0,2.5-0.3,5.1-0.7,7.6L256,81.8v-2.6c21.6-4.4,35.6-25.5,31.2-47.2S261.6-3.6,240,0.8C221.4,4.6,208,21,208,40h16
				c0-13.3,10.7-24,24-24s24,10.7,24,24s-10.7,24-24,24c-4.4,0-8,3.6-8,8v9.8l-55.3,13.8c-0.4-2.5-0.7-5-0.7-7.6
				c0-2.4-1.1-4.6-2.9-6.1c-1.8-1.5-4.2-2.2-6.6-1.7l-88,16c-1.6,0.3-3.1,1.1-4.2,2.2l-80,80c-3.1,3.1-3.1,8.2,0,11.3l64,64
				c3.1,3.1,8.2,3.1,11.3,0L96,235.3V288H40c-22-0.1-39.9,17.7-40,39.8c0,12.7,6,24.7,16.2,32.2c-17.7,12.9-21.5,37.7-8.6,55.4
				c2.4,3.3,5.3,6.2,8.6,8.6c-17.7,13.1-21.5,38-8.5,55.8C15.3,490,27.3,496,40,496h288c2.1,0,4.2-0.8,5.7-2.3l64-64
				c1.5-1.5,2.3-3.5,2.3-5.7h0.1V235.3l18.3,18.3c3.1,3.1,8.2,3.1,11.3,0l64-64C496.8,186.5,496.8,181.5,493.7,178.3z M248,96.2
				l58.2,14.5c-12.1,20.6-34.4,32.9-58.2,32.2c-23.8,0.7-46.1-11.7-58.2-32.2L248,96.2z M16,328c0-13.3,10.7-24,24-24h176
				c13.3,0,24,10.7,24,24s-10.7,24-24,24H40C26.8,352,16,341.3,16,328z M16,392c0-13.3,10.7-24,24-24h176c13.3,0,24,10.7,24,24
				s-10.7,24-24,24H40C26.8,416,16,405.3,16,392z M216,480h-16H40c-13.3,0-24-10.7-24-24s10.7-24,24-24h176c13.3,0,24,10.7,24,24
				S229.3,480,216,480z M336,468.7V432h36.7L336,468.7z M424,236.7l-50.3-50.3l-11.3,11.3l21.7,21.7V416h-56c-4.4,0-8,3.6-8,8v56
				h-72.2c13.3-17.3,10.1-42-7.1-55.3c-0.3-0.2-0.6-0.4-0.9-0.7c17.7-12.9,21.5-37.7,8.6-55.4c-2.4-3.3-5.3-6.2-8.6-8.6
				c17.7-13.1,21.5-38,8.5-55.8C240.7,294,228.7,288,216,288H112v-68.7l21.7-21.7l-11.3-11.3L72,236.7L19.3,184l72.6-72.6l76.8-14
				c5.2,34.7,38.8,61.5,79.3,61.5s74.1-26.8,79.3-61.5l76.8,14l72.6,72.6L424,236.7z"/>
			<rect x="32" y="320" width="192" height="16"/>
			<rect x="32" y="384" width="184" height="16"/>
			<rect x="32" y="448" width="184" height="16"/>
		</g>
	</g>
</g>
</svg>
