<?xml version="1.0" encoding="utf-8"?>
<!-- Generator: Adobe Illustrator 22.0.1, SVG Export Plug-In . SVG Version: 6.00 Build 0)  -->
<svg version="1.1" id="Слой_1" xmlns="http://www.w3.org/2000/svg" xmlns:xlink="http://www.w3.org/1999/xlink" x="0px" y="0px"
	 viewBox="0 0 413.5 413.6" style="enable-background:new 0 0 413.5 413.6;" xml:space="preserve">
<style type="text/css">
	.st0{stroke:#000000;stroke-width:4;stroke-miterlimit:10;}
</style>
<g>
	<path class="st0" d="M411.5,376.4c-2,7.6-4.6,14.9-10,20.9c-8,8.9-17.8,13.9-29.7,14.2c-7.3,0.2-14.7,0.1-22,0.1
		c-73.8,0-147.7,0-221.5,0c-7.5,0-8.7-1.2-8.7-8.9c0-130.6,0-261.2-0.1-391.8c0-3.5,0.3-6.6,3.2-8.9c84.5,0,169.1,0,253.6,0
		c0.6,0.2,1.2,0.6,1.8,0.7c9.7,1.9,17.5,6.7,23.9,14.1c5.1,5.9,7.6,13,9.5,20.3C411.5,150.3,411.5,263.3,411.5,376.4z M130.1,401.1
		c1.3,0.1,2.2,0.1,3.1,0.1c78.8,0,157.6,0,236.3-0.1c3,0,6.2-0.3,9.1-1.1c14.4-4,22.6-15.4,22.6-31.4c0-108,0-215.9,0-323.9
		c0-19.8-12.8-32.5-32.5-32.5c-78.2,0-156.5,0-234.7,0c-1.3,0-2.5,0.1-3.9,0.2C130.1,142.2,130.1,271.5,130.1,401.1z"/>
	<path class="st0" d="M48.3,188.3c-12.8,0-25.6,0-38.4,0c-1.3,0-3,0.3-3.9-0.4c-1.6-1.3-3.9-3.3-3.8-4.8c0.2-1.8,2.5-3.5,4.1-5
		c0.6-0.5,2.1-0.2,3.1-0.2c26,0,52,0,77.9,0c0.9,0,1.9-0.1,2.8,0.1c2.6,0.5,4.4,2,4.5,4.8c0.1,2.8-1.5,4.5-4.1,5.1
		c-1.3,0.3-2.6,0.3-4,0.3C73.9,188.4,61.1,188.4,48.3,188.3z"/>
	<path class="st0" d="M48.3,235.6c-13.2,0-26.4,0-39.6,0c-2.9,0-5.4-0.6-6.4-3.6c-1-2.9,0.3-5,2.9-6.1c1.3-0.5,2.9-0.6,4.3-0.6
		c25.8,0,51.7,0,77.5,0c0.5,0,1.1,0,1.6,0c4,0.2,6.3,2.2,6.1,5.4c-0.3,3.7-2.8,4.9-6.1,4.9c-9.5,0-18.9,0-28.4,0
		C56.3,235.6,52.3,235.6,48.3,235.6z"/>
	<path class="st0" d="M58.6,130.8c9.8,0,19.7,0,29.5,0c4.4,0,6.7,1.8,6.6,5.1c0,3.2-2.4,5.1-6.7,5.1c-19.6,0-39.1,0-58.7,0
		c-4.6,0-6.9-1.9-6.8-5.4c0.1-3.3,2.3-4.8,6.9-4.9C39.2,130.8,48.9,130.8,58.6,130.8z"/>
	<path class="st0" d="M58.2,282.8c-9.7,0-19.4,0-29.1,0c-4.4,0-6.6-1.9-6.5-5.2c0.1-3.2,2.2-5,6.4-5c19.8-0.1,39.6-0.1,59.5,0
		c4,0,6.3,2,6.4,5.1c0,3.3-2.3,5.1-6.6,5.2C78.2,282.8,68.2,282.8,58.2,282.8z"/>
	<path class="st0" d="M265.6,44.7c50.9,0,92.5,41.5,92.7,92.6c0.2,51-41.4,92.7-92.7,92.9c-51.1,0.1-92.9-41.8-92.7-92.9
		C173.2,86.1,214.6,44.7,265.6,44.7z M304.4,119c-11.5,0-22.5,0-33.5,0c0,12.5,0,24.7,0,37c11.1,0,21.9,0,32.9,0
		C306.6,143.6,306.6,131.4,304.4,119z M226.9,118.9c-2.4,11.9-2,23.4-0.2,34.9c0.4,2.4,1.7,2.5,3.6,2.5c8.5-0.1,17.1,0,25.6,0
		c1.4,0,2.8,0,4.2,0c0-12.8,0-25,0-37.4C249,118.9,238.1,118.9,226.9,118.9z M249.4,218c-14.1-14.9-24-31.2-29.8-50
		c-0.2-0.6-1.3-1.4-2-1.4c-9.4-0.1-18.8-0.1-28.4-0.1C195.6,188.1,219.3,212.4,249.4,218z M315.5,156c9.9,0,20,0,30.3,0
		c2.8-12.6,3-24.9-0.1-37.1c-10.5,0-20.6,0-30.2,0C315.5,131.4,315.5,143.5,315.5,156z M215.7,119c-10,0-20.2,0-30.3,0
		c-2.8,12.5-2.9,24.7,0.1,37c10.4,0,20.5,0,30.1,0C215.7,143.6,215.7,131.5,215.7,119z M283,217.6c25.9-3.9,51.8-27.1,59.1-51
		c-8.7,0-17.3,0.1-26-0.1c-3-0.1-4.5,0.8-5.3,3.8c-3.3,11.2-8.5,21.5-15.2,31C291.6,206.9,287.2,212.2,283,217.6z M287.3,58.4
		c11.5,14.5,20.3,30.3,25.1,48.2c0.2,0.7,1.1,1.7,1.7,1.7c9.4,0.1,18.7,0.1,28.6,0.1C331.9,82.6,313.7,65.9,287.3,58.4z
		 M218.5,108.3c4.7-18.7,13.6-35.1,25.9-50c-25,5.1-49.3,28.7-55.1,50C198.8,108.3,208.4,108.3,218.5,108.3z M302,108.3
		c-5.8-20-15.9-36.9-30.9-51.5c0,17.7,0,34.6,0,51.5C281.5,108.3,291.5,108.3,302,108.3z M229.3,108.2c10.5,0,20.7,0,30.9,0
		c0-17.1,0-33.9,0-51.6C245.1,71.4,235,88.4,229.3,108.2z M271,166.7c0,15.8,0,31.4,0,47.7c14.1-13.8,24.1-29.3,30.2-47.7
		C290.7,166.7,280.9,166.7,271,166.7z M230.6,166.7c2.5,13.2,18.9,39.4,29.6,46.7c0-15.5,0-31,0-46.7
		C250.2,166.7,240.4,166.7,230.6,166.7z"/>
	<path class="st0" d="M265.5,255.6c26.5,0,53,0,79.6,0c6.8,0,8.1,1.3,8.1,8.2c0,31.3,0,62.6,0,93.9c0,6.2-1.4,7.6-7.4,7.6
		c-53.3,0-106.6,0-159.9,0c-6.3,0-7.8-1.5-7.8-7.8c0-31.3,0-62.6,0-93.9c0-6.5,1.5-8,7.9-8.1C212.5,255.6,239,255.6,265.5,255.6z
		 M188.5,354.8c51.5,0,102.7,0,154.1,0c0-29.7,0-59.1,0-88.7c-51.4,0-102.7,0-154.1,0C188.5,295.7,188.5,325.1,188.5,354.8z"/>
	<path class="st0" d="M265.5,330.8c-10.3,0-20.5,0-30.8,0c-4.5,0-7.2-1.9-7.1-5.2c0-3.2,2.6-5.1,7.2-5.2c20.7,0,41.3,0,62,0
		c4.4,0,6.8,1.8,6.9,5c0.1,3.4-2.3,5.3-6.9,5.3C286.3,330.8,275.9,330.8,265.5,330.8C265.5,330.8,265.5,330.8,265.5,330.8z"/>
	<path class="st0" d="M265.5,300.5c-10.4,0-20.8,0-31.2,0c-4.3,0-6.7-1.9-6.7-5.1c0-3.1,2.5-5.2,6.8-5.2c20.9,0,41.8-0.1,62.7,0
		c5,0,8.2,3.8,5.9,7.2c-1.1,1.6-3.9,2.9-5.9,2.9C286.5,300.6,276,300.5,265.5,300.5z"/>
</g>
</svg>
