<?xml version="1.0" encoding="utf-8"?>
<!-- Generator: Adobe Illustrator 22.0.1, SVG Export Plug-In . SVG Version: 6.00 Build 0)  -->
<svg version="1.1" id="Слой_1" xmlns="http://www.w3.org/2000/svg" xmlns:xlink="http://www.w3.org/1999/xlink" x="0px" y="0px"
	 viewBox="0 0 512 512" style="enable-background:new 0 0 512 512;" xml:space="preserve">
<path d="M177.3,245.2c-4.1,0-7.5,3.4-7.5,7.5V267c0,4.1,3.4,7.5,7.5,7.5c4.1,0,7.5-3.4,7.5-7.5v-14.2
	C184.8,248.6,181.5,245.2,177.3,245.2z"/>
<path d="M334.7,245.2c-4.1,0-7.5,3.4-7.5,7.5V267c0,4.1,3.4,7.5,7.5,7.5c4.1,0,7.5-3.4,7.5-7.5v-14.2
	C342.2,248.6,338.8,245.2,334.7,245.2z"/>
<path d="M280.4,260.3c-3.1-2.7-7.9-2.4-10.6,0.7c-3.3,3.8-8.4,6-13.8,6s-10.4-2.2-13.8-6c-2.7-3.1-7.5-3.4-10.6-0.7
	c-3.1,2.7-3.4,7.5-0.7,10.6c6.2,7.1,15.3,11.2,25.1,11.2s18.9-4.1,25.1-11.2C283.8,267.8,283.5,263.1,280.4,260.3z"/>
<path d="M266.1,383.3c0,5.6-4.5,10.1-10.1,10.1s-10.1-4.5-10.1-10.1c0-5.6,4.5-10.1,10.1-10.1S266.1,377.8,266.1,383.3z"/>
<path d="M436.5,202.8c-7.9-8.8-17.8-15.4-28.7-19.5c-3.1-19.4-8.9-46.8-19.9-74.6C360.4,39.6,314.8,3,256,3
	c-34.3,0-64.2,12.5-88.9,37.1c-2.9,2.9-2.9,7.7,0,10.6c2.9,2.9,7.7,2.9,10.6,0C199.5,29,225.8,18,256,18
	c52.1,0,92.9,33.3,117.9,96.2c9.4,23.6,14.8,47,18,65c-0.5-0.1-1.1-0.1-1.6-0.2c-2.8-0.3-5.6-0.5-8.4-0.5h-10.7
	c-3-15.7-8-36.7-16.4-57.6c-22-54.9-55.2-82.8-98.8-82.8s-76.8,27.9-98.8,82.8c-8.3,20.8-13.4,41.9-16.4,57.6h-10.7
	c-3.4,0-6.7,0.2-10,0.7c3.2-18,8.7-41.4,18-65c6.3-15.8,13.6-29.9,21.8-42c2.3-3.4,1.5-8.1-2-10.4c-3.4-2.3-8.1-1.5-10.4,2
	c-8.9,13-16.7,28.1-23.4,44.9c-11,27.7-16.9,55.1-19.9,74.6c-10.9,4.1-20.8,10.7-28.7,19.5C47.3,234,0,298,0,375.9
	c0,55.8,21.2,91.1,66.8,111c37.9,16.6,92.7,23.3,189.2,23.3s151.3-6.8,189.2-23.3c45.6-19.9,66.8-55.2,66.8-111
	C512,298,464.7,234,436.5,202.8z M171.1,126.6c19.5-48.7,48-73.4,84.9-73.4s65.4,24.7,84.9,73.4c7.4,18.6,12.1,37.4,15,52H156.1
	C159,163.9,163.7,145.1,171.1,126.6z M436.9,240c0.5-4,0.9-8.1,1.2-12.2c0,0,0,0,0,0c26.2,32.7,58.9,85.9,58.9,148.1
	c0,49.8-17.8,79.8-57.8,97.3c-44.4,19.4-114.3,22.1-183.2,22.1s-138.8-2.7-183.2-22.1c-40-17.5-57.8-47.5-57.8-97.3
	c0-62.2,32.7-115.4,58.9-148.1c0,0.1,0,0.2,0,0.4c1.2,16,4.1,32,8.9,47.3c14.9,48.1,49.5,86.5,97.3,103.5
	c13.2,4.7,26.9,7.8,40.7,9.6c0.2,0,0.4,0.1,0.6,0.1v17.1c0,11,9.2,20.1,20.1,20.1h29c10.9,0,20.1-9.3,20.1-20.1v-17.1
	c0.1,0,0.2,0,0.2,0c23.7-3.2,47-10.1,67.8-21.9c7.6-4.3,14.7-9.3,21.4-14.8c3.3-2.8,3.5-8.1,0.4-11.1c-2.7-2.6-7.1-2.8-10-0.4
	c-9.1,7.6-19.4,14-30.2,19c-15.7,7.3-32.5,11.7-49.6,14.1v-12.6c0-10.9-9.2-20.1-20.1-20.1h-29c-11,0-20.1,9.2-20.1,20.1v12.6
	c-5.8-0.8-11.5-1.8-17.2-3.1c-21.8-5-42.7-14.1-60.3-28.1c-34.3-27.4-51.2-70.6-54.8-113.4c-0.5-5.9-0.8-11.8-0.6-17.6
	c0-0.1,0-0.2,0-0.2c0-0.1,0-0.1,0-0.2c6.8-6.9,15.3-12,24.5-14.8c0.1,0,0.1,0,0.2,0c11-3.3,22.6-2.5,34-2.5h217.8
	c11.4,0,22.9-0.8,34,2.5c0.1,0,0.1,0,0.2,0.1c9.2,2.8,17.6,7.9,24.5,14.8c0.4,0.4,0,3.3,0,3.9c-0.3,34.7-9.4,70.4-29.2,99.3
	c-1.6,2.3-3.6,4.4-5,6.8c-2,3.2-1.2,7.6,1.8,9.9c3.2,2.5,8,1.9,10.5-1.3c9-11.6,16.2-24.5,21.9-38C430.3,275,434.6,257.6,436.9,240z
	 M236.3,405.8c0,0,0-44.9,0-44.9c0-2.7,2.3-5.1,5.1-5.1h29c2.7,0,5.1,2.3,5.1,5.1v44.9c0,2.8-2.3,5.1-5.1,5.1h-29
	C238.6,410.9,236.3,408.6,236.3,405.8z"/>
</svg>
