<?xml version="1.0" encoding="utf-8"?>
<!-- Generator: Adobe Illustrator 22.0.1, SVG Export Plug-In . SVG Version: 6.00 Build 0)  -->
<svg version="1.1" id="Layer_1" xmlns="http://www.w3.org/2000/svg" xmlns:xlink="http://www.w3.org/1999/xlink" x="0px" y="0px"
	 viewBox="0 0 512 512" style="enable-background:new 0 0 512 512;" xml:space="preserve">
<g>
	<g>
		<g>
			<path d="M454.9,262.8c-4.5,0-8.1,3.6-8.1,8.1v102.9l-42.8,11.6V183.5c0-4.5-3.6-8.1-8.1-8.1s-8.1,3.6-8.1,8.1V396v45.7v19.2
				H191.3c-4.5,0-8.1,3.6-8.1,8.1c0,4.5,3.6,8.1,8.1,8.1h196.6v18.7H124.1v-18.7h40.8c4.5,0,8.1-3.6,8.1-8.1s-3.6-8.1-8.1-8.1h-40.8
				v-19.2V396V183.5c0-4.5-3.6-8.1-8.1-8.1c-4.5,0-8.1,3.6-8.1,8.1v201.9l-42.8-11.6V134.2C65.2,110,94,90.8,120,79
				c0.1-0.1,0.3-0.1,0.4-0.2c12.3-5.5,23.2-9,28.2-10.6l49.5,25.6v128.7c0,4.5,3.6,8.1,8.1,8.1c4.5,0,8.1-3.6,8.1-8.1V102.2l38,19.6
				c2.3,1.2,5.1,1.2,7.4,0l40.3-20.9v121.6c0,4.5,3.6,8.1,8.1,8.1c4.5,0,8.1-3.6,8.1-8.1V92.6l47.1-24.4c5.2,1.6,16.6,5.3,29.3,11.1
				c0.1,0.1,0.3,0.1,0.4,0.2c25.7,11.9,53.8,30.8,53.8,54.8v109.1c0,4.5,3.6,8.1,8.1,8.1s8.1-3.6,8.1-8.1V134.2
				c0-32.6-32.8-55-60.5-68.2c-19.6-55.2-57.1-65.4-58.8-65.8c-0.2,0-0.3-0.1-0.5-0.1c-0.2,0-0.3-0.1-0.5-0.1C342.6,0,342.3,0,342,0
				c-0.1,0-0.2,0-0.3,0H171.3c0,0,0,0,0,0h-0.1c-0.1,0-0.2,0-0.3,0c-0.3,0-0.5,0-0.8,0.1c-0.2,0-0.3,0.1-0.5,0.1
				c-0.2,0-0.3,0-0.5,0.1c-1.6,0.4-38.9,10.6-58.6,65.3C82.7,78.6,49,101.2,49,134.2V380v45.7c0,3.6,2.4,6.8,6,7.8l53,14.4V469v34.9
				c0,4.5,3.6,8.1,8.1,8.1h280c4.5,0,8.1-3.6,8.1-8.1V469v-21.1l53-14.4c3.5-1,6-4.2,6-7.8V380V270.8
				C463,266.4,459.4,262.8,454.9,262.8z M256.5,84.5l-30.4-31.4h60.7L256.5,84.5z M343.9,17.5c7.7,3.5,24.5,13.7,37.4,39.7
				c-8.7-3.2-15-5-16.5-5.4c-0.1,0-0.2,0-0.2-0.1c-0.5-0.1-1-0.2-1.5-0.3c-1.5-0.1-3,0.2-4.3,0.9l-43.1,22.3
				c-1.1-3.1-4.1-5.4-7.6-5.4c-4.5,0-8.1,3.6-8.1,8.1v5.4l-38.9,20.1l1.1-1.2l49.4-51.1c0,0,0,0,0,0L330,31.8L343.9,17.5z
				 M322.7,16.2l-10.3,10.7L302.5,37h-92l-20.2-20.8L322.7,16.2L322.7,16.2z M169.1,17.5l76.2,78.6l-1.8,1.9l-0.7,0.7L214.3,84v-6.6
				c0-4.5-3.6-8.1-8.1-8.1c-3.9,0-7.1,2.8-7.9,6.4l-45.1-23.3c-0.3-0.1-0.5-0.3-0.8-0.4c-0.1,0-0.2-0.1-0.3-0.1
				c-0.2-0.1-0.4-0.1-0.6-0.2c-0.1,0-0.2,0-0.3-0.1c-0.2,0-0.4-0.1-0.7-0.1c-0.1,0-0.1,0-0.2,0c-0.3,0-0.6,0-0.9-0.1c0,0,0,0-0.1,0
				c0,0-0.1,0-0.1,0c-0.3,0-0.5,0-0.8,0.1c-0.1,0-0.2,0-0.3,0c-0.3,0-0.6,0.1-0.9,0.2c-0.9,0.3-6.9,1.9-15.5,5
				C144.7,31,161.4,20.9,169.1,17.5z M107.9,431.1l-42.8-11.6v-29l42.8,11.6C107.9,402.2,107.9,431.1,107.9,431.1z M446.8,419.5
				l-42.8,11.6v-29l42.8-11.6V419.5z"/>
			<path d="M314.5,300c0-4.5-3.6-8.1-8.1-8.1h-99.8c-4.5,0-8.1,3.6-8.1,8.1c0,25.1-13.8,48-36,59.7c-2.6,1.4-4.3,4.2-4.3,7.1V430
				c0,4.5,3.6,8.1,8.1,8.1h180.5c4.5,0,8.1-3.6,8.1-8.1v-63.2c0-3-1.7-5.7-4.3-7.1C328.3,348,314.5,325.1,314.5,300z M338.6,422
				L338.6,422H174.3v-50.4c22.7-13.7,37.4-37.3,39.9-63.5h84.4c2.5,26.2,17.3,49.8,39.9,63.5L338.6,422L338.6,422z"/>
		</g>
	</g>
</g>
</svg>
