<?xml version="1.0" encoding="utf-8"?>
<!-- Generator: Adobe Illustrator 22.0.1, SVG Export Plug-In . SVG Version: 6.00 Build 0)  -->
<svg version="1.1" id="Слой_1" xmlns="http://www.w3.org/2000/svg" xmlns:xlink="http://www.w3.org/1999/xlink" x="0px" y="0px"
	 viewBox="0 0 511 511" style="enable-background:new 0 0 511 511;" xml:space="preserve">
<path d="M263.8,179.8c0,5.2-4.2,9.3-9.3,9.3s-9.3-4.2-9.3-9.3c0-5.2,4.2-9.3,9.3-9.3S263.8,174.7,263.8,179.8z"/>
<path d="M263.8,243.8c0,5.2-4.2,9.3-9.3,9.3s-9.3-4.2-9.3-9.3c0-5.2,4.2-9.3,9.3-9.3S263.8,238.6,263.8,243.8z"/>
<path d="M263.8,307.8c0,5.2-4.2,9.3-9.3,9.3s-9.3-4.2-9.3-9.3c0-5.2,4.2-9.3,9.3-9.3S263.8,302.6,263.8,307.8z"/>
<path d="M263.8,371.8c0,5.2-4.2,9.3-9.3,9.3s-9.3-4.2-9.3-9.3c0-5.2,4.2-9.3,9.3-9.3S263.8,366.6,263.8,371.8z"/>
<path d="M6.5,480c4.6,4.7,10.9,7.6,17.8,7.6h32.5c13.2,0,24.3-10.3,25.2-23.5c0.7-9.5,1.8-24.5,3.6-41.9
	c4.1-39.4,11.3-88.6,23.3-125.5l0.9,124.8l0.2,28.3c0.1,20.9,17.3,37.9,38.1,37.9h212.5c20.9,0,38-17,38.1-37.9l0.2-28.3l0.9-124.8
	c12.1,36.9,19.2,86.1,23.3,125.5c1.8,17.4,3,32.4,3.6,41.9c0.9,13.2,12,23.5,25.2,23.5h32.5c13.9,0,25.4-11.6,25.3-25.5
	c0-5.3-0.5-32.8-0.7-41c-2.5-88.2-10.7-162.4-24.5-220.7c-1-4-5-6.5-9-5.6c-4,1-6.5,5-5.6,9c13.1,55.6,21.2,126.2,23.9,210h-56.6
	c-5.8-52.5-16.9-119.4-37.6-155.6c-1-1.7-0.9-5.2-1.2-7.2c-3-19.2-3.3-38.8-0.5-58c4.3-29.4,16.8-58.4,36.8-80.6c0,0,0,0,0,0
	c5.9,8.2,16.9,26.9,27.8,63.4c1.2,4,5.4,6.2,9.3,5c4-1.2,6.2-5.4,5-9.3c-7.3-24.3-15.5-44.2-24.4-59.3c-3.3-5.6-7.1-12.1-12.2-16.4
	c-25.5-26-71.5-32.6-85.7-34.1c-4.7-8.2-11.5-15.3-20.2-21c-12.1-7.9-24.1-10.6-26.9-11.1c-3.3-1-18.1-4.9-53.1-4.9
	c-16.1,0-29.9,0.8-41,2.4c-6.3,0.9-9.9,1.7-12.1,2.5c-2.6,0.5-14.8,3.2-27.1,11.2c-8.7,5.7-15.5,12.7-20.2,21
	c-14.3,1.5-60.4,8.1-85.8,34.1c-4.1,3.8-47.1,47.9-63.3,230.7c-0.4,4.1,2.7,7.8,6.8,8.1c4.1,0.4,7.8-2.7,8.1-6.8
	c8.3-93.9,23.8-149,35.3-178.7c7.6-19.4,14.4-30.8,18.7-36.8c0,0,0.1,0.1,0.1,0.1c0.2,0.2,0.3,0.4,0.5,0.5
	c14.3,16.1,48.4,63.8,35.1,141.5c0,0.2-0.5,2.6-0.6,3.6c-20.7,36.2-31.8,103.1-37.6,155.6H14.9c0.6-19.3,1.5-38.2,2.7-56.1
	c0.3-4.1-2.8-7.7-7-8c-4.1-0.3-7.7,2.8-8,7c-1.4,20.5-2.4,42.1-3,64.3c-0.2,8.1-0.7,35.6-0.7,41C-1.1,468.9,1.8,475.3,6.5,480z
	 M495,462.2c0,5.7-4.6,10.4-10.3,10.4h-32.5c-5.4,0-9.9-4.2-10.3-9.6c-0.2-2.7-0.4-5.9-0.7-9.5h53.7C495,456.5,495,459.3,495,462.2z
	 M494.5,428.8c0.1,3.2,0.1,6.5,0.2,9.7H440c-0.3-3.1-0.6-6.4-0.9-9.7H494.5z M219.1,472.6h-70.9c-12.7,0-23.1-10.3-23.2-23
	l-0.2-20.8h94.2V472.6z M274.9,472.6h-40.8v-43.8h40.8V472.6z M274.9,413.9h-40.8c0,0,0-275.1,0-275.1c2.2,0,4.3-0.1,6.5-0.1
	c6.9-0.2,11.9-0.6,13.8-0.8c0,0,0.1,0,0.1,0c0.8,0.1,10.1,0.7,12.8,0.7c2.5,0.1,5,0.1,7.5,0.1V413.9z M383.9,449.6
	c-0.1,12.7-10.5,23-23.2,23h-70.9v-43.8h94.2L383.9,449.6z M362.6,95.8c0.4-5.9-0.2-12-1.5-17.8c0-0.1,0-0.1,0-0.2
	c15.8,2.3,44.6,8.5,63.6,23.9c-6.1,6.7-16,18.9-24.8,36.7c-17.8,35.9-21.9,77.3-15.7,116.6c0.4,2.2,0.7,4.5,1.2,6.7l-1.1,152.3
	h-94.3V138.4c7.8-0.4,15-1.2,21.6-2.3C343.4,130.6,361.2,116.8,362.6,95.8z M313.1,94c7.3-13.2,9.1-28.4,5.6-43.1
	c-0.2-0.6-0.3-1.3-0.5-1.9c11,5,25.1,15.1,28.7,34.6c0.9,5.2,1.6,11.1-0.1,16.2c-1.8,5.5-7,12.6-22.3,17.8
	c-10.2,3.4-21,4.9-31.7,5.7c-2.8,0.2-5.6,0.3-8.4,0.4c-0.1,0-0.1,0-0.2,0c2.1-1.4,4.2-2.8,6.2-4.4C299.5,112.4,307.6,104,313.1,94z
	 M203.6,64.3c0.1-4.5,0.9-8.9,2.1-13.2c0.3-0.9,1.8-7.4,2.8-7.6c5.6-1.2,19.6-3.5,46-3.5c26.4,0,40.4,2.3,46,3.5
	c3.2,7.3,5.2,15.2,5,23.2c-0.5,27.8-27.6,46.5-51,55.7c-4.2-1.7-13.3-5.6-22.6-12c0,0,0,0,0,0C216.1,99.8,203.1,84.1,203.6,64.3z
	 M161.3,90.4c0.9-18.8,12.5-33.8,29.4-41.5c-0.2,0.8-0.4,1.6-0.6,2.5c0,0,0,0.1,0,0.1c-4.5,19.3,1,38.7,13.6,53.7
	c6.3,7.5,13.9,13.6,21.1,18.4c-0.1,0-0.1,0-0.2,0c-0.3,0-0.6,0-0.9,0C203.6,122.9,160,119.8,161.3,90.4z M112.7,146
	c-2.1-4.8-25.9-46.3-28.3-44.3c18.9-15.3,47.8-21.5,63.6-23.9c0,0.1,0,0.1,0,0.2c-3.4,14.9-1.3,31.7,10.8,42.3
	c9.7,8.5,22.2,12.5,34.6,15c7.7,1.6,16.3,2.6,25.8,3.1v275.4h-94.3l-1.1-152.3c0.1-0.8,0.3-1.5,0.4-2.3
	C130.9,221.4,128.2,181.5,112.7,146z M14.5,428.8h55.4c-0.3,3.4-0.6,6.6-0.9,9.7H14.3C14.4,435.3,14.4,432.1,14.5,428.8z
	 M14.1,453.6h53.7c-0.3,3.6-0.5,6.7-0.7,9.5c-0.4,5.4-4.9,9.6-10.3,9.6c0,0-32.5,0-32.5,0c-5.7,0-10.3-4.7-10.3-10.4
	C14,459.3,14,456.4,14.1,453.6z"/>
</svg>
