<?xml version="1.0" encoding="utf-8"?>
<!-- Generator: Adobe Illustrator 22.0.1, SVG Export Plug-In . SVG Version: 6.00 Build 0)  -->
<svg version="1.1" id="Capa_1" xmlns="http://www.w3.org/2000/svg" xmlns:xlink="http://www.w3.org/1999/xlink" x="0px" y="0px"
	 viewBox="0 0 136.5 184.3" style="enable-background:new 0 0 136.5 184.3;" xml:space="preserve">
<g>
	<path d="M123.3,0H13.2C5.9,0,0,5.9,0,13.2v157.9c0,7.3,5.9,13.2,13.2,13.2h110.1c7.3,0,13.2-5.9,13.2-13.2V13.2
		C136.5,5.9,130.6,0,123.3,0z M123.3,177.5H13.2c-3.5,0-6.4-2.9-6.4-6.4V13.2c0-3.5,2.9-6.4,6.4-6.4h110.1c3.5,0,6.4,2.9,6.4,6.4
		v157.9h0C129.7,174.6,126.8,177.5,123.3,177.5z"/>
	<path d="M102.4,139.9H30.7c-1.9,0-3.4,1.5-3.4,3.4s1.5,3.4,3.4,3.4h71.7c1.9,0,3.4-1.5,3.4-3.4S104.3,139.9,102.4,139.9z"/>
	<path d="M68.3,157H30.7c-1.9,0-3.4,1.5-3.4,3.4c0,1.9,1.5,3.4,3.4,3.4h37.5c1.9,0,3.4-1.5,3.4-3.4C71.7,158.5,70.2,157,68.3,157z"
		/>
	<path d="M122.9,34.1H61.4H13.7c-1.9,0-3.4,1.5-3.4,3.4v41v27.3c0,1.9,1.5,3.4,3.4,3.4h109.2c1.9,0,3.4-1.5,3.4-3.4V37.5
		C126.3,35.7,124.8,34.1,122.9,34.1z M64.9,68.3h54.6v6.8H64.9V68.3z M119.5,61.4H64.9v-6.8h54.6V61.4z M61.4,81.9L61.4,81.9h58v6.8
		H17.1v-6.8H61.4z M119.5,47.8H64.9V41h54.6V47.8z M17.1,41h41v34.1h-41V41z M17.1,102.4v-6.8h102.4v6.8H17.1z"/>
	<path d="M45.1,52.4h-2.6c-1.8,0-3.4-1.1-3.9-2.8l-0.8-2.5c-0.5-1.4-1.8-2.4-3.2-2.4c-1.5,0-2.8,1-3.2,2.4l-0.8,2.5
		c-0.6,1.7-2.1,2.8-3.9,2.8h-2.6c-1.5,0-2.8,1-3.2,2.4c-0.5,1.4,0,2.9,1.2,3.8l2.1,1.5c1.4,1,2,2.9,1.5,4.6l-0.8,2.5
		c-0.5,1.4,0,2.9,1.2,3.8c1.2,0.9,2.8,0.9,4,0l2.1-1.6c1.4-1,3.4-1,4.8,0L39,71c0.6,0.4,1.3,0.7,2,0.7c0.7,0,1.4-0.2,2-0.7
		c1.2-0.9,1.7-2.4,1.2-3.8l-0.8-2.5c-0.5-1.7,0-3.5,1.5-4.6l2.1-1.5c1.2-0.9,1.7-2.4,1.2-3.8C47.9,53.4,46.6,52.4,45.1,52.4z
		 M36.5,62.1c-0.7-0.1-1.4-0.2-2-0.2c-0.7,0-1.4,0.1-2,0.2c-0.2-1.4-0.6-2.7-1.3-3.9c1.2-0.6,2.4-1.4,3.3-2.4c0.9,1,2.1,1.8,3.3,2.4
		C37.1,59.4,36.7,60.7,36.5,62.1z"/>
</g>
</svg>
