<?xml version="1.0" encoding="utf-8"?>
<!-- Generator: Adobe Illustrator 22.0.1, SVG Export Plug-In . SVG Version: 6.00 Build 0)  -->
<svg version="1.1" id="Capa_1" xmlns="http://www.w3.org/2000/svg" xmlns:xlink="http://www.w3.org/1999/xlink" x="0px" y="0px"
	 viewBox="0 0 512 512" style="enable-background:new 0 0 512 512;" xml:space="preserve">
<g>
	<g>
		<path d="M500.6,161.2c-1.5-3.9,0.8-0.5-45.5-53.5c-2.7-3.1-7.5-3.4-10.6-0.7c-3.1,2.7-3.4,7.5-0.7,10.6l20.9,24L400.1,192
			c-4.9-0.4-9.5,2.8-10.8,7.8l-0.2,0.9l0.1,0c-3.2,12-6.4,38-7.8,52.2c-11.1,118.9,16.2,205,15.7,211.1c-0.3,3.6-2.4,7-5.8,8.8
			c-7.8,3.5-18.6,7.2-26.7,9.6c-4,1.2-6.3,5.4-5.1,9.3c1.2,4,5.3,6.3,9.3,5.1c9.1-2.7,23.7-7.8,29-10.5c11-5.4,16.4-17.9,13.5-29.7
			c-21-84.2-22.1-175.1-9.4-243.8c10.5,12.2,10.2,11.9,11.4,13c6.2,5.6,15.7,6.5,23.1,1.1c0.1-0.1,60-47.1,61.5-48.9
			C501.6,173.5,503,167.2,500.6,161.2z M486.2,168.4c-62.2,49-59,46.9-60.5,46.9c-2.7,0.2-2.7-1.9-13.5-13.8l62.4-48.7
			c12.7,14.5,12,13.6,12.1,14.3C486.7,167.5,486.6,168.1,486.2,168.4z"/>
	</g>
</g>
<g>
	<g>
		<circle cx="256.1" cy="140.7" r="9.6"/>
	</g>
</g>
<g>
	<g>
		<circle cx="256.1" cy="175.5" r="9.6"/>
	</g>
</g>
<g>
	<g>
		<path d="M338.2,496.6c-0.7-4.1-4.6-6.8-8.7-6.1c-42.1,7.5-71.9,6-91.4,5.9v0c-43.2-2.3-67-7.3-90.8-14.2
			c-25.8-7.7-31.5-10.5-32.2-18.3c-0.5-6.1,21.3-76.7,18.2-168.3c-0.1-4.1-3.5-7.4-7.6-7.3c-4.2,0.1-7.5,3.5-7.4,7.6l0,0.2
			c1.3,54.6-4.7,109-17.4,160.4c-2.8,11.3,1.7,24.9,16,30.8c38.3,15.6,79.3,22.5,120.5,24.2v0c20.8,1.4,59.9,0.1,94.8-6.1
			C336.3,504.6,339,500.7,338.2,496.6z"/>
	</g>
</g>
<g>
	<g>
		<path d="M432,81.3c-5.6-5.5-14-19.8-34.5-28.2l-43.4-17.9c-18.1-24.3-19.8-28.1-28-32.2c-12.3-4.7,3.8-1.9-105.9-2.9
			c-24.2-0.2-28.5-0.7-36.8,4.6c-8.2,5.3-9,9.4-23.7,28.3l-1.6,2.1l-43.4,17.9c-10,4.1-19.1,10.6-26.3,18.8
			c-79.5,91-79.7,87.8-77.7,98.4c0.7,3.7,2.6,7.1,6,9.9c63.4,50,60.2,48.1,64.9,49.4c14.7,4.3,20.7-8.7,28.6-17
			c2.8,15.4,4.9,32.5,6.2,48.6c0.3,3.9,3.6,6.9,7.5,6.9c4.4,0,7.9-3.8,7.5-8.1c-1.4-17.2-4.7-44.9-8.3-59.4c-0.1-0.3-0.8-6.2-7-8.2
			c-1.3-0.4-2.7-0.6-4-0.5l-64.7-50.4l52.3-59.8c13.6-15.5,27.8-16.5,60.5-31.2l46.5,64.8c2.7,3.8,6.6,6.3,11,6.9
			c10.1,1.5,12.8-4.6,38.4-22.5c26.4,18.6,28.2,23.5,36.3,23.5c5,0,9.6-2.7,12.2-6.4L352,50.6L391.8,67
			c16.6,6.8,23.2,18.6,28.9,24.2c2.7,3.1,7.5,3.4,10.6,0.7C434.5,89.2,434.8,84.4,432,81.3z M100,201.6c-11.7,13.6-12,15.3-15.4,13
			C24.2,167,24.4,168,25.8,166.3l11.7-13.4L100,201.6z M340.1,41.4c0-0.1-0.2-0.2-0.2-0.3C339.9,41.2,339.9,41.3,340.1,41.4
			L340.1,41.4z M308.3,15.2L289,38.7h-65.8l-19.5-23.6C216.6,15,242.3,15.7,308.3,15.2z M220,107.4c-1-0.2,1.4,2.3-47.8-66
			C178.5,33,187.3,21,188.2,20c52.1,63,56.9,68.9,57.1,69.1c0,0-0.3-0.3,0,0C219.5,108.1,220.6,107.5,220,107.4z M235.6,53.7h41
			l-20.5,24.9L235.6,53.7z M292.4,108l-25.5-19c0.1-0.1,57-68.9,57.1-69.1c13.6,18.1,15.9,21.2,16.1,21.4
			C290.3,111.1,292.6,107.9,292.4,108z"/>
	</g>
</g>
</svg>
