<?xml version="1.0" encoding="utf-8"?>
<!-- Generator: Adobe Illustrator 22.0.1, SVG Export Plug-In . SVG Version: 6.00 Build 0)  -->
<svg version="1.1" id="Layer_1" xmlns="http://www.w3.org/2000/svg" xmlns:xlink="http://www.w3.org/1999/xlink" x="0px" y="0px"
	 viewBox="0 0 503.6 503.6" style="enable-background:new 0 0 503.6 503.6;" xml:space="preserve">
<g transform="translate(1 1)">
	<g>
		<g>
			<path d="M494.2,234h-58.8v-16.8c0-5-3.4-8.4-8.4-8.4V192c5,0,8.4-3.4,8.4-8.4c0-32.7-26-58.8-58.8-58.8s-58.8,26-58.8,58.8
				c0,5,3.4,8.4,8.4,8.4v16.8c-5,0-8.4,3.4-8.4,8.4V234h-99.9v-50.4c0-24.3-11.8-47-31.9-61.3c-3.4-1.7-7.6-1.7-10.1,0
				c-20.1,14.3-47.8,14.3-68,0c-3.4-1.7-7.6-1.7-10.1,0c-20.1,14.3-31.9,36.9-31.9,61.3V234H7.4c-5,0-8.4,3.4-8.4,8.4v50.4
				c0,5,3.4,8.4,8.4,8.4v176.3c0,14.3,10.9,25.2,25.2,25.2H469c14.3,0,25.2-10.9,25.2-25.2V301.2c5,0,8.4-3.4,8.4-8.4v-50.4
				C502.6,237.4,499.2,234,494.2,234z M376.7,141.7c20.1,0,36.9,14.3,41.1,33.6h-82.3C339.8,156,356.6,141.7,376.7,141.7z
				 M343.1,192h67.1v16.8h-67.1V192z M334.7,225.6h83.9v8.4h-83.9V225.6z M141.7,153.4l14.3,15.1l-14.3,24.3l-14.3-24.3L141.7,153.4
				z M82.9,183.7c0-16.8,7.6-32.7,20.1-44.5c6.5,4,13.5,6.8,20.8,8.6L110.6,161c-3.4,2.5-3.4,6.7-1.7,10.1l25.2,42
				c1.7,2.5,4.2,4.2,7.6,4.2s5.9-1.7,7.6-4.2l25.2-42c1.7-3.4,0.8-7.6-1.7-10.1l-13.3-13.3c7.3-1.8,14.3-4.6,20.8-8.6
				c12.6,11.8,20.1,27.7,20.1,44.5V234H82.9V183.7z M15.8,250.8h58.8h134.3h117.5h100.7h58.8v33.6h-470V250.8z M477.4,418.7h-50.4
				c-5,0-8.4,3.4-8.4,8.4s3.4,8.4,8.4,8.4h50.4v16.8h-50.4c-5,0-8.4,3.4-8.4,8.4s3.4,8.4,8.4,8.4h50.4v8.4c0,5-3.4,8.4-8.4,8.4H32.6
				c-5,0-8.4-3.4-8.4-8.4V469h50.4c5,0,8.4-3.4,8.4-8.4s-3.4-8.4-8.4-8.4H24.2v-16.8h50.4c5,0,8.4-3.4,8.4-8.4s-3.4-8.4-8.4-8.4
				H24.2V301.2h453.2V418.7z"/>
			<path d="M141.7,116.5c32.7,0,58.8-26,58.8-58.8S174.4-1,141.7-1S82.9,25,82.9,57.8C82.9,90.5,109,116.5,141.7,116.5z M141.7,15.8
				c23.5,0,42,18.5,42,42s-18.5,42-42,42s-42-18.5-42-42S118.2,15.8,141.7,15.8z"/>
			<path d="M242.4,469c42,0,75.5-33.6,75.5-75.5S284.4,318,242.4,318s-75.5,33.6-75.5,75.5C166.9,435.5,200.4,469,242.4,469z
				 M242.4,334.7c32.7,0,58.8,26,58.8,58.8s-26,58.8-58.8,58.8s-58.8-26-58.8-58.8S209.7,334.7,242.4,334.7z"/>
			<path d="M242.4,435.5c5,0,8.4-3.4,8.4-8.4s-3.4-8.4-8.4-8.4c-14.3,0-25.2-10.9-25.2-25.2c0-5-3.4-8.4-8.4-8.4s-8.4,3.4-8.4,8.4
				C200.4,417,218.9,435.5,242.4,435.5z"/>
			<path d="M242.4,368.3c14.3,0,25.2,10.9,25.2,25.2c0,5,3.4,8.4,8.4,8.4s8.4-3.4,8.4-8.4c0-23.5-18.5-42-42-42
				c-5,0-8.4,3.4-8.4,8.4S237.4,368.3,242.4,368.3z"/>
		</g>
	</g>
</g>
</svg>
