<?xml version="1.0" encoding="utf-8"?>
<!-- Generator: Adobe Illustrator 22.0.1, SVG Export Plug-In . SVG Version: 6.00 Build 0)  -->
<svg version="1.1" id="Слой_1" xmlns="http://www.w3.org/2000/svg" xmlns:xlink="http://www.w3.org/1999/xlink" x="0px" y="0px"
	 viewBox="0 0 511 511" style="enable-background:new 0 0 511 511;" xml:space="preserve">
<path d="M200,56.6c4.1,0,7.5-3.4,7.5-7.5V38.8c0-4.1-3.3-7.5-7.5-7.5c-4.1,0-7.5,3.4-7.5,7.5v10.3C192.6,53.3,195.9,56.6,200,56.6z"
	/>
<path d="M313.6,56.6c4.1,0,7.5-3.4,7.5-7.5V38.8c0-4.1-3.4-7.5-7.5-7.5c-4.1,0-7.5,3.4-7.5,7.5v10.3
	C306.2,53.3,309.5,56.6,313.6,56.6z"/>
<path d="M256.8,62.1c7.6,0,14.8-3.2,19.7-8.8c2.7-3.1,2.4-7.8-0.7-10.6c-3.1-2.7-7.8-2.4-10.6,0.7c-2,2.3-5.1,3.6-8.4,3.6
	c-3.3,0-6.4-1.3-8.4-3.6c-2.7-3.1-7.5-3.4-10.6-0.7c-3.1,2.7-3.4,7.5-0.7,10.6C242.1,58.9,249.2,62.1,256.8,62.1z"/>
<path d="M435.5,192.3c-2.6,3.2-2.2,7.9,1,10.5c3.2,2.6,7.9,2.2,10.5-1l23.5-28.3c29.3-35.3,24.5-87.9-10.8-117.3L394,1.7
	c-1.3-1.1-3.1-1.7-4.8-1.7c0,0-264.7,0-264.7,0c-1.8,0.1-3.4,0.6-4.8,1.7L54,56.3c-17.1,14.2-27.6,34.2-29.7,56.4
	s4.7,43.8,18.9,60.9l62.6,75.3c2.6,3.2,7.4,3.6,10.5,1c3.2-2.6,3.6-7.4,1-10.5L54.7,164c-11.7-14-17.2-31.8-15.5-49.9
	c1.7-18.2,10.3-34.6,24.4-46.3L123.5,18l123.6,148.7L152,281.1l-15.6-18.7c-2.6-3.2-7.4-3.6-10.5-1c-3.2,2.6-3.6,7.4-1,10.5
	l17.3,20.9l-38,45.7c-2.6,3.2-2.2,7.9,1,10.5l6.2,5.1l-47,56.6c-7.4,8.8-6.1,22,2.7,29.4c8.8,7.3,22.1,6,29.4-2.7l47-56.6l7.7,6.4
	l-47,56.6c-7.4,8.8-6.1,22,2.7,29.4c8.7,7.3,22.1,6,29.4-2.7l47-56.6l7.7,6.4c0,0-47,56.5-47,56.6c-7.3,8.8-6,22.1,2.7,29.4
	c8.7,7.3,22.1,6,29.4-2.7l47-56.6c0,0,6.2,5.1,6.2,5.1c3.1,2.6,7.9,2.2,10.5-1l17-20.5c0,0,17,20.5,17,20.5c2.5,3.1,7.4,3.6,10.5,1
	l6.2-5.1c0,0,47,56.5,47,56.6c7.2,8.6,20.6,10,29.4,2.7s10-20.6,2.7-29.4l-47-56.6l7.7-6.4c0,0,47,56.5,47,56.6
	c7.3,8.7,20.7,10,29.4,2.7c8.8-7.4,10.1-20.5,2.7-29.4l-47-56.6l7.7-6.4c0,0,47,56.5,47,56.6c7.3,8.7,20.6,10,29.4,2.7
	c8.7-7.3,10-20.6,2.7-29.4l-47-56.6c0,0,6.1-5.1,6.2-5.1c3.1-2.6,3.6-7.4,1-10.5l-38-45.7l56.4-67.8c2.6-3.2,2.2-7.9-1-10.5
	s-7.9-2.2-10.5,1L233.1,435.8l-112.5-93.5L390.2,18l59.9,49.8c29,24.1,32.9,67.2,8.9,96.2L435.5,192.3z M358.2,486.4
	c2,2.4,1.8,6.2-0.8,8.3c-2.5,2.1-6.2,1.7-8.3-0.8l-47-56.6l9.1-7.5C311.1,429.9,358.1,486.4,358.2,486.4z M397.9,453.4
	c2.1,2.5,1.7,6.2-0.8,8.3c-2.5,2.1-6.2,1.7-8.3-0.8l-47-56.6l9.1-7.5L397.9,453.4z M437.7,420.3c2.1,2.5,1.7,6.2-0.8,8.3
	c-2.5,2.1-6.2,1.7-8.3-0.8l-47-56.6l9.1-7.5L437.7,420.3z M361.7,304.6l31.4,37.8l-112.5,93.5l-14-16.9L361.7,304.6z M211.6,437.4
	c0,0-46.9,56.5-47,56.6c-2.1,2.5-5.8,2.8-8.3,0.8c-2.5-2.1-2.8-5.8-0.8-8.3l47-56.6L211.6,437.4z M171.8,404.3
	c0,0-46.9,56.5-47,56.6c-2.1,2.5-5.8,2.8-8.3,0.8c-2.5-2.1-2.8-5.8-0.8-8.3l47-56.6L171.8,404.3z M123,363.7l9.1,7.5
	c0,0-46.9,56.4-47,56.6c-2.1,2.5-5.8,2.8-8.3,0.8c-2.5-2.1-2.8-5.8-0.8-8.3L123,363.7z M256.8,155l-21.4-25.7h42.7L256.8,155z
	 M290.6,114.4h-67.6L140.4,15h232.8L290.6,114.4z"/>
</svg>
