<?xml version="1.0" encoding="utf-8"?>
<!-- Generator: Adobe Illustrator 22.0.1, SVG Export Plug-In . SVG Version: 6.00 Build 0)  -->
<svg version="1.1" id="Capa_1" xmlns="http://www.w3.org/2000/svg" xmlns:xlink="http://www.w3.org/1999/xlink" x="0px" y="0px"
	 viewBox="0 0 368 368" style="enable-background:new 0 0 368 368;" xml:space="preserve">
<g>
	<path d="M328,210.5c-24.9,0-26.5-22-26.5-26.5c0-59.9,14.2-134.5,15.9-142.8v-0.1c0.5-2.4-0.7-4.9-2.9-6l-64-32
		c-1.4-0.7-3-0.8-4.5-0.2s-2.6,1.8-3.1,3.2L231,38.7l-0.9,0.4c-8.3,4.2-25.3,11.3-46.1,11.3s-37.8-7.1-46.1-11.3l-0.9-0.4L125.2,6.1
		c-0.5-1.5-1.7-2.6-3.1-3.2c-1.5-0.6-3.1-0.5-4.5,0.2l-64,32c-2.2,1.1-3.4,3.6-2.9,6v0.1c1.6,8.3,15.9,83.2,15.9,142.8
		c0,4.4-1.6,26.5-26.5,26.5c-3,0-5.5,2.5-5.5,5.5v136c0,7.4,6.1,13.5,13.5,13.5h80c1.5,0,2.9-0.6,3.9-1.6l52.4-52.4l60.1,52.6
		c1,0.9,2.3,1.4,3.6,1.4h72c7.4,0,13.5-6.1,13.5-13.5V216C333.5,213,331,210.5,328,210.5z M178.5,301.7l-52.8,52.8H45.5V221.3
		l2.1-0.3c23.6-3.8,29.9-25,29.9-36.9c0-54.6-11.5-120.3-15-139.1l-0.3-1.9L117,15.7l0.9,2.6L178.5,185V301.7z M184,167.9
		L142.4,53.4l5,1.7c12.2,4.2,24.5,6.4,36.6,6.4s24.4-2.1,36.6-6.4l5-1.7L184,167.9z M250.1,354.5l-60.6-53v-32H232
		c3,0,5.5-2.5,5.5-5.5s-2.5-5.5-5.5-5.5h-42.5v-37H232c3,0,5.5-2.5,5.5-5.5s-2.5-5.5-5.5-5.5h-42.5V185l0.1-0.4L251,15.7l54.7,27.4
		l-0.3,1.8c-3.5,18.8-15,84.3-15,139.1c0,11.9,6.3,33.2,29.9,36.9l2.1,0.3v133.2h-72.3V354.5z"/>
</g>
</svg>
