<?xml version="1.0" encoding="utf-8"?>
<!-- Generator: Adobe Illustrator 22.0.1, SVG Export Plug-In . SVG Version: 6.00 Build 0)  -->
<svg version="1.1" id="Layer_1" xmlns="http://www.w3.org/2000/svg" xmlns:xlink="http://www.w3.org/1999/xlink" x="0px" y="0px"
	 viewBox="0 0 512 763" style="enable-background:new 0 0 512 763;" xml:space="preserve">
<style type="text/css">
	.st0{stroke:#000000;stroke-width:5;stroke-miterlimit:10;}
	.st1{stroke:#000000;stroke-width:7;stroke-miterlimit:10;}
</style>
<g>
	<path class="st0" d="M290.3,507.5L290.3,507.5c-4.5,0-8.1,3.6-8.1,8c0,4.4,3.6,8,8.1,8c4.4,0,8-3.6,8-8
		C298.3,511.1,294.7,507.5,290.3,507.5z"/>
	<path class="st0" d="M290.4,627.3L290.4,627.3c-4.5,0-8.1,3.6-8.1,8c0,4.4,3.6,8,8.1,8c4.4,0,8-3.6,8-8
		C298.4,630.8,294.8,627.3,290.4,627.3z"/>
	<path class="st0" d="M290.3,447.7L290.3,447.7c-4.5,0-8.1,3.6-8.1,8s3.6,8,8.1,8c4.4,0,8-3.6,8-8S294.7,447.7,290.3,447.7z"/>
	<path class="st0" d="M290.3,583.4c4.4,0,8-3.6,8-8c0-4.4-3.6-8-8-8h-0.1c-4.4,0-8,3.6-8,8C282.2,579.8,285.9,583.4,290.3,583.4z"/>
	<path class="st0" d="M477.6,637.5l-7.4-275.2c-0.7-24.3-16.5-46.1-39.3-54.3l-84.1-30l-15.6-23.4c-1.3-1.9-3.3-3.2-5.6-3.5
		c-0.4,0-0.7-0.1-1.1-0.1v0H187.6v0c-0.4,0-0.7,0-1.1,0.1c-2.3,0.3-4.3,1.6-5.6,3.5L165.3,278l-84.1,30c-22.9,8.2-38.7,30-39.3,54.3
		l-7.4,275.2c-0.2,6.9,3.9,13.2,10.3,15.8l-1.5,26.6c-0.4,7.2,3.9,13.8,10.6,16.4l48.9,18.6c0.3,7.2,5.3,13.4,12.3,15.3l121.9,32.5
		c0.7,0.2,1.4,0.3,2.1,0.3c1.6,0,3.1-0.5,4.5-1.4c1.9-1.3,3.2-3.3,3.5-5.6l9.2-68.7l9.2,68.7c0.3,2.3,1.6,4.3,3.5,5.6
		c1.9,1.3,4.3,1.7,6.5,1.1l121.9-32.5c7-1.9,12-8.1,12.3-15.3l48.9-18.6c6.8-2.6,11.1-9.2,10.6-16.4l-1.5-26.6
		C473.7,650.7,477.8,644.4,477.6,637.5z M332,284.8L297,340.7c0,0.1-0.1,0.2-0.4,0.2c-0.2,0-0.4-0.1-0.4-0.1l-27.8-22.2l54.3-47.5
		L332,284.8z M189.2,271.1l54.3,47.5l-27.8,22.2c-0.1,0-0.2,0.2-0.4,0.1c-0.2,0-0.3-0.2-0.4-0.2L180,284.8L189.2,271.1z
		 M102.6,697.8l-43.1-16.4c-0.2-0.1-0.4-0.3-0.3-0.5l1.2-21.6l42.2,15.8V697.8z M248,626.2l-15.8,118.7L119,714.7
		c-0.2-0.1-0.4-0.3-0.4-0.5V404.4c0-4.4-3.6-8-8-8c-4.4,0-8,3.6-8,8v253.5l-51.9-19.5c-0.2-0.1-0.4-0.3-0.3-0.5l7.4-275.2
		c0.5-17.7,12-33.6,28.7-39.6l80.6-28.8l34.2,54.8c2.5,4,6.6,6.8,11.3,7.6c0.9,0.2,1.9,0.2,2.8,0.2c3.7,0,7.4-1.3,10.4-3.6
		l22.2-17.8V626.2z M256,308.2L208.9,267h94.1L256,308.2z M452.5,681.3l-43.1,16.4l0-22.7l42.2-15.8l1.2,21.6
		C452.9,681,452.7,681.2,452.5,681.3z M461.3,638.5l-51.8,19.4l0.2-253.5c0-4.4-3.6-8-8-8c0,0,0,0,0,0c-4.4,0-8,3.6-8,8l-0.3,309.8
		c0,0.2-0.2,0.5-0.4,0.5l-113.1,30.2L264,626.2V335.6l22.2,17.8c3,2.4,6.6,3.6,10.4,3.6c0.9,0,1.9-0.1,2.8-0.2
		c4.7-0.8,8.8-3.5,11.3-7.6l34.2-54.8l80.6,28.8c16.7,6,28.2,21.9,28.7,39.6l7.4,275.2C461.6,638.2,461.5,638.4,461.3,638.5z"/>
	<path class="st0" d="M213.2,396.4h-68.4c-4.4,0-8,3.6-8,8v59.9c0,13.9,11.3,25.1,25.1,25.1h34.2c13.9,0,25.1-11.3,25.1-25.1v-59.9
		C221.3,400,217.7,396.4,213.2,396.4z M152.9,412.4h52.4v9.1h0c0,5-4.1,9.1-9.1,9.1h-34.2c-5,0-9.1-4.1-9.1-9.1V412.4z M205.2,464.2
		L205.2,464.2c0,5-4.1,9.1-9.1,9.1h-34.2c-5,0-9.1-4.1-9.1-9.1v-19.3c2.8,1.1,5.9,1.7,9.1,1.7h34.2c3.2,0,6.3-0.6,9.1-1.7V464.2z"/>
	<ellipse transform="matrix(0.9732 -0.2298 0.2298 0.9732 -83.1812 77.2647)" class="st0" cx="290.2" cy="395.8" rx="8" ry="8"/>
	<path class="st1" d="M58.6,192.9c24.3,19.4,53.5,30.2,84.6,31.3c1.6,0.1,3.2,0.1,4.8,0.1c29.3,0,57.5-8.8,81.6-25.7l31.8-22.2
		l67.6,6.9c0.2,0,0.4,0,0.5,0c1.3,0,2.6-0.5,3.6-1.4c1.1-1,1.8-2.4,1.8-4l0.2-41.2c0.2-40.8-30.2-75.3-70.8-80.2l-47.9-5.8
		c-18.8-2.3-37.9,2.2-53.8,12.6c-15.9,10.4-27.6,26.1-33,44.3L116.4,153l-57,31.1c-1.6,0.9-2.6,2.4-2.8,4.2
		C56.5,190.1,57.2,191.8,58.6,192.9z M131.2,140.6l37.3,4c0.2,0,0.4,0,0.6,0c2.7,0,5-2,5.3-4.8c0.3-2.9-1.8-5.6-4.7-5.9l-35.4-3.8
		l5.7-19.3c9.7-32.7,41.3-53.4,75.2-49.4l47.9,5.8c35.2,4.2,61.5,34.2,61.4,69.6l-0.2,35.3L127.8,152L131.2,140.6z M122,162.1
		l123.2,12.6l-21.6,15c-45.5,31.7-106.8,31.3-151.8-0.3L122,162.1z"/>
	<path class="st1" d="M185.7,135.7L185.7,135.7c-3-0.3-5.6,1.8-5.9,4.7s1.8,5.6,4.8,5.9c0.2,0,0.4,0,0.6,0c2.7,0,5-2,5.3-4.8
		C190.8,138.7,188.6,136,185.7,135.7z"/>
</g>
</svg>
