<?xml version="1.0" encoding="utf-8"?>
<!-- Generator: Adobe Illustrator 22.0.1, SVG Export Plug-In . SVG Version: 6.00 Build 0)  -->
<svg version="1.1" id="Capa_1" xmlns="http://www.w3.org/2000/svg" xmlns:xlink="http://www.w3.org/1999/xlink" x="0px" y="0px"
	 viewBox="0 0 512 512" style="enable-background:new 0 0 512 512;" xml:space="preserve">
<g>
	<g>
		<path d="M504,381h-1v-89c0-0.2,0-0.4,0-0.5c0-0.2,0-0.2,0-0.3c0-0.1,0-0.2,0-0.4c0-0.2-0.1-0.3-0.1-0.4v-0.2
			c-0.1-0.2-0.1-0.4-0.1-0.5v-0.1c-0.1-0.3-0.1-0.4-0.2-0.6l-48.1-104.2c-0.1-0.1-0.1-0.3-0.2-0.4c0-0.1-0.1-0.2-0.2-0.3
			s-0.1-0.2-0.2-0.3s-0.1-0.2-0.2-0.3s-0.1-0.1-0.2-0.2c-0.1-0.1-0.2-0.2-0.3-0.3l-0.2-0.2c-0.1-0.1-0.2-0.2-0.3-0.3
			c-0.1-0.1-0.1-0.1-0.2-0.2c-0.1-0.1-0.2-0.2-0.3-0.2c-0.1-0.1-0.2-0.1-0.3-0.2c-0.1-0.1-0.2-0.1-0.3-0.2c-0.1-0.1-0.2-0.1-0.3-0.2
			c-0.1-0.1-0.2-0.1-0.3-0.1c-0.1-0.1-0.2-0.1-0.4-0.2c-0.1,0-0.2-0.1-0.3-0.1c-0.1,0-0.3-0.1-0.4-0.1s-0.2-0.1-0.3-0.1
			c-0.1,0-0.3-0.1-0.4-0.1s-0.2,0-0.3,0c-0.1,0-0.2,0-0.3,0c-0.1,0-0.3,0-0.4,0h-0.1H335V44c0-3.9-3.1-7-7-7H216c-3.9,0-7,3.1-7,7
			v57h-89c-3.9,0-7,3.1-7,7v49H24c-3.9,0-7,3.1-7,7v113H8c-3.9,0-7,3.1-7,7v104c0,3.9,3.1,7,7,7h9v25.5c0,3.9,3.1,7,7,7
			c0.7,0,1.4-0.1,2-0.3h0.3l47.1-0.1l0.1,0.9c3.9,26.9,27.3,47.1,54.4,47.1c27.2,0,50.6-20.3,54.4-47.1l0.1-0.9h154.9l0.1,0.9
			c3.9,26.9,27.3,47.1,54.4,47.1s50.6-20.3,54.4-47.1l0.1-0.9H504c3.9,0,7-3.1,7-7v-32C511,384.1,507.9,381,504,381z M375,195h68.5
			l0.3,0.6l41.3,89.4H400c-13.8,0-25-11.2-25-25V195z M263,51h18v26h-18V51z M223,51h26v33c0,3.9,3.1,7,7,7h32c3.9,0,7-3.1,7-7V51
			h26v226h-98V51z M127,115h34v9c0,3.9,3.1,7,7,7s7-3.1,7-7v-9h34v82h-82V115z M127,211h34v17c0,3.9,3.1,7,7,7s7-3.1,7-7v-17h34v66
			h-82V211z M63,171h18v10H63V171z M31,171h18v17c0,3.9,3.1,7,7,7h32c3.9,0,7-3.1,7-7v-17h18v106H31V171z M128,461
			c-22.6,0-41-18.4-41-41s18.4-41,41-41s41,18.4,41,41S150.6,461,128,461z M392,461c-22.1,0-40.1-17.3-41-39.4v-0.1v-0.1
			c0.1-0.5,0.1-0.9,0.1-1.4s0-0.9-0.1-1.4v-0.1v-0.1c0.9-22.1,18.9-39.4,41-39.4c22.6,0,41,18.4,41,41S414.6,461,392,461z M497,413
			h-50.5l-0.1-0.9c-3.9-26.9-27.3-47.1-54.4-47.1s-50.6,20.3-54.4,47.1l-0.1,0.9h-155l-0.1-0.9c-3.9-26.9-27.3-47.1-54.4-47.1
			c-27.2,0-50.6,20.3-54.4,47.2l-0.1,0.9L31,413.2V395h17c3.9,0,7-3.1,7-7s-3.1-7-7-7H15v-90h306v33c0,3.9,3.1,7,7,7s7-3.1,7-7V195
			h26v65c0,21.5,17.5,39,39,39h89v42h-1c-3.9,0-7,3.1-7,7s3.1,7,7,7h1v26h-8.8c-3.9,0-7,3.1-7,7s3.1,7,7,7H497V413z"/>
	</g>
	<g>
		<path d="M128,397c-12.7,0-23,10.3-23,23s10.3,23,23,23s23-10.3,23-23S140.7,397,128,397z M128,429c-5,0-9-4-9-9s4-9,9-9s9,4,9,9
			S133,429,128,429z"/>
	</g>
	<g>
		<path d="M392,397c-12.7,0-23,10.3-23,23s10.3,23,23,23s23-10.3,23-23S404.7,397,392,397z M392,429c-5,0-9-4-9-9s4-9,9-9s9,4,9,9
			S397,429,392,429z"/>
	</g>
</g>
</svg>
