<?xml version="1.0" encoding="utf-8"?>
<!-- Generator: Adobe Illustrator 22.0.1, SVG Export Plug-In . SVG Version: 6.00 Build 0)  -->
<svg version="1.1" id="Capa_1" xmlns="http://www.w3.org/2000/svg" xmlns:xlink="http://www.w3.org/1999/xlink" x="0px" y="0px"
	 viewBox="0 0 512 512" style="enable-background:new 0 0 512 512;" xml:space="preserve">
<g>
	<g>
		<path d="M493.5,438.4l-45.9-183.9c-4.5-17.4-20.3-29.8-38.3-30.1H409l-104.3-8.1v-32.2l0.8-0.7c15.8-14.1,24.8-34.3,24.8-55.3
			V42.7c0-10.7-4.2-20.8-11.8-28.4c-7.6-7.6-17.7-11.8-28.4-11.8h-68.3c-22.2,0-40.2,18-40.2,40.2V128c0,21,9,41.2,24.8,55.3
			l0.8,0.7v32.2l-103.9,8.1c-18.4,0-34.4,12.4-39,30.2L18.6,438.3c-3.7,14.8-1.4,30.2,6.4,43.3c7.9,13.1,20.3,22.4,35.2,26.1
			c1.5,0.4,3.1,0.7,5,1h0.3l0.3,0.1c0.8,0.4,1.6,0.5,2.5,0.5h76.8c19,0,35.6-13.5,39.3-32.1l0.4-2h142.3l0.4,2
			c3.8,18.6,20.3,32.1,39.4,32.1h76.8c0.8,0,1.7-0.2,2.4-0.5l0.3-0.1h0.3c27.6-4.3,48.4-28.6,48.4-56.5
			C495.2,447.6,494.6,442.9,493.5,438.4z M408.7,236.4c12.8,0,24,8.7,27.1,21l28,112h-48.2V264.5c0-3.3-2.7-6-6-6h-139l30.4-30.4
			L408.7,236.4z M403.6,270.6v47.7H296.2v-47.7H403.6z M227.9,318.2v-47.7h56.2v47.7H227.9z M284.1,330.3v39.1h-56.2v-39.1H284.1z
			 M256,256l-36.6-36.6v-26.6l3.6,1.8c10.3,5.2,21.5,7.8,33,7.8s22.7-2.6,33-7.8l3.6-1.8v26.6L256,256z M193.8,42.7
			c0-15.5,12.6-28.1,28.1-28.1h68.3c15.5,0,28.1,12.6,28.1,28.1v22.1l-4-3c-7-5.3-15.3-8-24.1-8h-68.3c-8.8,0-17.1,2.8-24.1,8l-4,3
			V42.7z M317.8,87.8H194.2l1.2-3.3c4-11.2,14.6-18.7,26.5-18.7h68.3c11.9,0,22.5,7.5,26.5,18.7L317.8,87.8z M193.8,128V99.9h47.7
			v36.6c0,3.3,2.7,6,6,6H262v-12.1h-8.5V99.9h64.7V128c0,34.3-27.9,62.2-62.2,62.2S193.8,162.3,193.8,128z M76.2,257.5
			c3.3-12.6,14.4-21,27.8-21.1l107-8.3l30.4,30.4h-139c-3.3,0-6,2.7-6,6v104.9H48.2L76.2,257.5z M215.8,270.6v47.7H108.4v-47.7
			H215.8z M62.2,443.7V496l-3.3-1.2c-10-3.5-18.1-10.2-23.6-19.3c-6.2-10.3-8-22.5-5.1-34.2l14.9-59.8h51.2v41.6L93,422
			c-2.5-0.9-5.1-1.3-7.7-1.3C72.6,420.6,62.2,431,62.2,443.7z M171.6,478.7c-4,11.2-14.6,18.7-26.5,18.7H74.3v-53.7
			c0-6.1,5-11,11-11c6.1,0,11,5,11,11v25.6c0,3.3,2.7,6,6,6h70.3L171.6,478.7z M108.4,463.3v-133h107.4v45.2c0,3.3,2.7,6,6,6h68.3
			c3.3,0,6-2.7,6-6v-45.2h107.4v133H108.4z M437.7,497.4h-70.8c-11.9,0-22.5-7.5-26.5-18.7l-1.2-3.3h70.3c2.5,0,4.8-1.6,5.7-4
			c0.2-0.7,0.4-1.3,0.4-2v-25.6c0-6.1,5-11,11-11c6.1,0,11,5,11,11v53.6H437.7z M453.1,494.8l-3.3,1.2v-52.3
			c0-12.7-10.4-23.1-23.1-23.1c-2.6,0-5.2,0.5-7.7,1.3l-3.3,1.2v-41.6h51.2l14.9,59.8c0.9,3.6,1.3,7.3,1.3,11
			C483.1,471.3,471,488.4,453.1,494.8z"/>
	</g>
	<g>
		<rect x="369.4" y="429.2" width="12.1" height="12.1"/>
	</g>
	<g>
		<rect x="335.3" y="429.2" width="12.1" height="12.1"/>
	</g>
</g>
</svg>
