<?xml version="1.0" encoding="utf-8"?>
<!-- Generator: Adobe Illustrator 22.0.1, SVG Export Plug-In . SVG Version: 6.00 Build 0)  -->
<svg version="1.1" id="Слой_1" xmlns="http://www.w3.org/2000/svg" xmlns:xlink="http://www.w3.org/1999/xlink" x="0px" y="0px"
	 viewBox="0 0 511 512" style="enable-background:new 0 0 511 512;" xml:space="preserve">
<g>
	<path d="M234.7,346.2c-3.3,3.3-8.7,3.3-12,0s-3.3-8.7,0-12c1.7-1.7,3.8-2.5,6-2.5s4.4,0.8,6,2.5C238,337.5,238,342.9,234.7,346.2z"
		/>
</g>
<g>
	<path d="M298.4,1.5C238.6,1.5,190,50.2,190,110s48.7,108.5,108.5,108.5S406.9,169.8,406.9,110S358.2,1.5,298.4,1.5z M298.4,201.4
		c-50.4,0-91.5-41-91.5-91.5s41-91.5,91.5-91.5s91.5,41,91.5,91.5S348.9,201.4,298.4,201.4z"/>
</g>
<g>
	<path d="M497.2,222.9c-16.1-13.5-40.3-11.6-54,4.3L383,289.1l-1.1-1.3c-7.4-9.1-18.3-14.3-29.9-14.3H240.2l-0.3-0.1
		c-15.7-6.6-32.3-9.9-49.5-9.9c-49.1,0-89.7,23-111.4,63.1l-0.5,1l-1.1-0.2c-1.8-0.3-3.5-0.5-5.3-0.5c-7.5,0-14.7,3-20.1,8.4
		L4.5,382.9c-3.3,3.3-3.3,8.7,0,12L116.7,508c3.3,3.3,8.7,3.3,12,0.1l48.5-47.8c7.6-7.6,10.3-19.2,6.8-29.5l-0.3-0.9l11.1-10.7
		c5.9-5.7,13.7-8.8,21.9-8.8h132.9c23.2,0,45.1-8.9,61.7-25.1l0.1-0.1c0.4-0.4,3-3.6,16.4-19.6c12.6-15,34.8-41.6,74-88.5
		C515.5,260.9,513.4,236.6,497.2,222.9z M165.2,448.2L122.8,490L22.5,388.9l41.6-41.7c3.8-3.8,9.7-4.5,14.2-1.6l0.1,0.1
		c0.9,0.5,0.9,0.5,17.8,17.4c12.3,12.3,32.9,32.9,68.9,68.9c2.2,2.2,3.4,5.1,3.4,8.2C168.5,443.2,167.3,446.2,165.2,448.2z
		 M488.8,266.2L399,373.4l-0.1,0.1c-13.4,12.8-31,19.9-49.5,19.9H216.6c-12.6,0-24.6,4.8-33.7,13.6l-9.6,9.2l-80.2-80.1l0.5-1
		c18.5-34.7,53.8-54.7,96.7-54.7c15.5,0,30.5,3.1,44.6,9.3c1.1,0.5,2.2,0.7,3.4,0.7H352c11.9,0,21.5,9.6,21.5,21.5
		s-9.6,21.5-21.5,21.5h-81.6c-4.7,0-8.5,3.8-8.5,8.5s3.8,8.5,8.5,8.5H352c21.2,0,38.5-17.3,38.5-38.5c0-1.6-0.1-3.3-0.3-5l-0.1-0.7
		l42.1-43.3c18.9-19.5,23.4-24.1,23.8-24.5c7.6-9,21.2-10.2,30.3-2.5C495.3,243.5,496.4,257.1,488.8,266.2z"/>
</g>
<g>
	<path d="M324.9,130c0,12-7.6,22.8-19,26.9l-1,0.4v12.8c0,4.7-3.8,8.5-8.5,8.5s-8.5-3.8-8.5-8.5v-12.7l-1-0.3
		c-6.4-2.2-12.5-6.5-17.6-12.6c-3-3.6-2.6-9,1-12c1.6-1.3,3.5-2,5.5-2c2.4,0,4.8,1,6.5,3c4.4,5.2,9.4,8.1,14.1,8.1
		c6.3,0,11.5-5.2,11.5-11.5s-5.1-11.5-11.5-11.5c-15.7,0-28.5-12.8-28.5-28.5c0-12,7.6-22.8,19-26.9l1-0.4V50c0-4.7,3.8-8.5,8.5-8.5
		s8.5,3.8,8.5,8.5v12.7l1,0.3c5,1.7,9.8,4.6,14.2,8.8c3.4,3.3,3.5,8.7,0.2,12c-3.3,3.4-8.6,3.4-12,0.2c-3.8-3.7-7.9-5.6-11.9-5.6
		c-6.3,0-11.5,5.2-11.5,11.5s5.2,11.5,11.5,11.5C312.1,101.5,324.9,114.2,324.9,130z"/>
</g>
</svg>
