<?xml version="1.0" encoding="utf-8"?>
<!-- Generator: Adobe Illustrator 22.0.1, SVG Export Plug-In . SVG Version: 6.00 Build 0)  -->
<svg version="1.1" id="Layer_1" xmlns="http://www.w3.org/2000/svg" xmlns:xlink="http://www.w3.org/1999/xlink" x="0px" y="0px"
	 viewBox="0 0 512 512" style="enable-background:new 0 0 512 512;" xml:space="preserve">
<g>
	<g>
		<g>
			<path d="M475.9,232.8l-1-0.1L461,177.2l1.5-0.3c3-0.6,5.1-3.3,5.1-6.4V162c0-17.7-14.4-32.2-32.2-32.2h-61.9v-19.1
				c0-8.3-6.8-15.1-15.1-15.1H50.8c-8.3,0-15.1,6.8-15.1,15.1V256c0,3.6,2.9,6.5,6.5,6.5s6.5-2.9,6.5-6.5V110.6c0-1.1,0.9-2,2-2
				h307.8c1.1,0,2,0.9,2,2V256c0,3.6,2.9,6.5,6.5,6.5s6.5-2.9,6.5-6.5v-10.6h96.2c12,0,22.6,7.8,26.3,19.2l0.6,2h-27
				c-3.6,0-6.5,2.9-6.5,6.5v17.1c0,13,10.6,23.6,23.6,23.6h10.6v38.3h-23.5l-0.3-1c-6.9-19.9-25.6-33.2-46.6-33.2
				s-39.7,13.3-46.6,33.2l-0.4,1h-6.4v-61.9c0-3.6-2.9-6.5-6.5-6.5s-6.5,2.9-6.5,6.5v61.9H191.8l-0.3-1
				c-6.9-19.9-25.6-33.2-46.6-33.2s-39.7,13.3-46.6,33.2l-0.4,1H50.8c-1.1,0-2-0.9-2-2V331H85c3.6,0,6.5-2.9,6.5-6.5
				S88.6,318,85,318H8c-3.6,0-6.5,2.9-6.5,6.5S4.4,331,8,331h27.7v19.1c0,8.3,6.8,15.1,15.1,15.1h44.8v2c0,27.2,22.1,49.3,49.3,49.3
				s49.3-22.1,49.3-49.3v-2h183.7v2c0,27.2,22.1,49.3,49.3,49.3c27.2,0,49.3-22.1,49.3-49.3v-2H504c3.6,0,6.5-2.9,6.5-6.5v-85.5
				C510.5,253.2,495.6,235.8,475.9,232.8z M373.7,142.8h61.9c10.6,0,19.1,8.6,19.1,19.1v2h-81V142.8z M373.7,232.4V177h73.9
				l13.8,55.4H373.7z M144.8,403.4c-20,0-36.2-16.3-36.2-36.2c0-20,16.3-36.2,36.2-36.2c20,0,36.2,16.3,36.2,36.2
				C181.1,387.2,164.8,403.4,144.8,403.4z M427,403.4c-20,0-36.2-16.3-36.2-36.2c0-20,16.3-36.2,36.2-36.2c20,0,36.2,16.3,36.2,36.2
				C463.3,387.2,447,403.4,427,403.4z M497.5,300.8h-10.6c-5.8,0-10.6-4.8-10.6-10.6v-10.6h21.2V300.8z"/>
		</g>
	</g>
</g>
<g>
	<g>
		<g>
			<path d="M159.9,367.2c0,8.3-6.8,15.1-15.1,15.1s-15.1-6.8-15.1-15.1c0-8.3,6.8-15.1,15.1-15.1
				C153.1,352.1,159.9,358.9,159.9,367.2z"/>
		</g>
	</g>
</g>
<g>
	<g>
		<g>
			<path d="M442.1,367.2c0,8.3-6.8,15.1-15.1,15.1s-15.1-6.8-15.1-15.1c0-8.3,6.8-15.1,15.1-15.1S442.1,358.9,442.1,367.2z"/>
		</g>
	</g>
</g>
<g>
	<g>
		<g>
			<path d="M339.5,324.4c0,3.6-2.9,6.5-6.5,6.5H213.2c-3.6,0-6.5-2.9-6.5-6.5s2.9-6.5,6.5-6.5H333
				C336.5,317.9,339.5,320.8,339.5,324.4z"/>
		</g>
	</g>
</g>
<g>
	<g>
		<g>
			<path d="M134.3,290.2c0,3.6-2.9,6.5-6.5,6.5H25.1c-3.6,0-6.5-2.9-6.5-6.5s2.9-6.5,6.5-6.5h102.6
				C131.3,283.7,134.3,286.6,134.3,290.2z"/>
		</g>
	</g>
</g>
<g>
	<g>
		<g>
			<path d="M277.7,183.7l-77,77c-1.2,1.2-2.9,1.9-4.6,1.9s-3.4-0.7-4.6-1.9l-42.8-42.8c-2.5-2.5-2.5-6.7,0-9.2
				c1.2-1.2,2.9-1.9,4.6-1.9s3.4,0.7,4.6,1.9l38.2,38.1l72.3-72.4c2.5-2.5,6.7-2.5,9.2,0C280.3,177,280.3,181.1,277.7,183.7z"/>
		</g>
	</g>
</g>
</svg>
