<?xml version="1.0" encoding="utf-8"?>
<!-- Generator: Adobe Illustrator 22.0.1, SVG Export Plug-In . SVG Version: 6.00 Build 0)  -->
<svg version="1.1" id="Capa_1" xmlns="http://www.w3.org/2000/svg" xmlns:xlink="http://www.w3.org/1999/xlink" x="0px" y="0px"
	 viewBox="0 0 512 341.3" style="enable-background:new 0 0 512 341.3;" xml:space="preserve">
<style type="text/css">
	.st0{fill:#FFDA44;}
	.st1{fill:#0052B4;}
	.st2{fill:#D80027;}
	.st3{fill:#FF9811;}
</style>
<rect class="st0" width="512" height="341.3"/>
<rect class="st1" width="170.7" height="341.3"/>
<g>
	<rect x="341.3" class="st2" width="170.7" height="341.3"/>
	<path class="st2" d="M256,230c0-27.2,0-59.4,0-59.4h44.5v22.3c0,3.9-7.4,18-25.7,29.7C267.8,227,260.7,228.4,256,230z"/>
	<rect x="211.5" y="126.1" class="st2" width="44.5" height="44.5"/>
</g>
<path class="st3" d="M278.3,111.3c0-8.2-6.6-14.8-14.8-14.8c-2.7,0-5.2,0.7-7.4,2c-2.2-1.3-4.7-2-7.4-2c-8.2,0-14.8,6.6-14.8,14.8
	h-37.1v74.2c0,27.6,21.9,43.6,39.1,51.9c-1.3,2.2-2,4.8-2,7.5c0,8.2,6.6,14.8,14.8,14.8c2.7,0,5.2-0.7,7.4-2c2.2,1.3,4.7,2,7.4,2
	c8.2,0,14.8-6.6,14.8-14.8c0-2.7-0.8-5.3-2-7.5c17.2-8.3,39.1-24.3,39.1-51.9v-74.2L278.3,111.3L278.3,111.3z M293.1,185.5
	c0,3.9,0,15.6-18.3,27.3c-6.9,4.4-14.1,7.3-18.8,8.9c-4.7-1.6-11.8-4.5-18.8-8.9c-18.3-11.6-18.3-23.4-18.3-27.3v-51.9h74.2
	L293.1,185.5L293.1,185.5L293.1,185.5z"/>
</svg>
