<?xml version="1.0" encoding="utf-8"?>
<!-- Generator: Adobe Illustrator 22.0.1, SVG Export Plug-In . SVG Version: 6.00 Build 0)  -->
<svg version="1.1" id="Capa_1" xmlns="http://www.w3.org/2000/svg" xmlns:xlink="http://www.w3.org/1999/xlink" x="0px" y="0px"
	 viewBox="0 0 16 16" style="enable-background:new 0 0 16 16;" xml:space="preserve">
<style type="text/css">
	.st0{fill:#1966FF;}
</style>
<g>
	<g>
		<path class="st0" d="M7.9,8.6C8,8.6,8,8.6,7.9,8.6C8,8.6,8,8.6,7.9,8.6c0.1,0,0.1,0,0.1,0c1,0,1.7-0.4,2.3-1c1.2-1.4,1-3.8,1-4.1
			C11.3,1.8,10.5,1,9.8,0.6C9.3,0.3,8.7,0.2,8,0.2h0c0,0,0,0,0,0h0c-0.4,0-1.1,0.1-1.7,0.4C5.6,1,4.7,1.8,4.6,3.6
			c0,0.2-0.2,2.6,1,4.1C6.2,8.3,7,8.6,7.9,8.6z M5.5,3.6C5.5,3.6,5.5,3.6,5.5,3.6C5.6,1.3,7.3,1,8,1h0c0,0,0,0,0,0
			c0.9,0,2.4,0.4,2.5,2.6c0,0,0,0,0,0c0,0,0.2,2.2-0.8,3.4C9.3,7.5,8.7,7.7,8,7.7c0,0,0,0,0,0l0,0c0,0,0,0,0,0
			C7.3,7.7,6.7,7.5,6.3,7C5.3,5.9,5.5,3.7,5.5,3.6z"/>
		<path class="st0" d="M14.7,12.6C14.7,12.6,14.7,12.6,14.7,12.6C14.7,12.6,14.7,12.5,14.7,12.6c0-0.7-0.1-2.2-1.5-2.7c0,0,0,0,0,0
			c-1.5-0.4-2.7-1.2-2.7-1.2C10.3,8.5,10,8.6,9.9,8.8C9.7,9,9.8,9.2,10,9.4c0.1,0,1.3,0.9,3,1.4c0.8,0.3,0.8,1.1,0.9,1.8
			c0,0,0,0.1,0,0.1c0,0.3,0,0.7-0.1,1C13.2,13.9,11.1,15,8,15c-3.1,0-5.2-1-5.7-1.3c-0.1-0.3-0.1-0.7-0.1-1c0,0,0-0.1,0-0.1
			c0-0.7,0.1-1.5,0.9-1.8C4.7,10.3,6,9.4,6,9.4C6.2,9.2,6.3,9,6.1,8.8C6,8.6,5.7,8.5,5.5,8.7c0,0-1.2,0.9-2.7,1.2c0,0,0,0,0,0
			c-1.4,0.5-1.4,2-1.5,2.6c0,0,0,0.1,0,0.1c0,0,0,0,0,0c0,0.2,0,1,0.2,1.5c0,0.1,0.1,0.2,0.2,0.2c0.1,0.1,2.4,1.6,6.3,1.6
			s6.2-1.5,6.3-1.6c0.1,0,0.1-0.1,0.2-0.2C14.7,13.6,14.7,12.8,14.7,12.6z"/>
	</g>
</g>
</svg>
