<?xml version="1.0" encoding="utf-8"?>
<!-- Generator: Adobe Illustrator 22.0.1, SVG Export Plug-In . SVG Version: 6.00 Build 0)  -->
<svg version="1.1" id="Слой_1" xmlns="http://www.w3.org/2000/svg" xmlns:xlink="http://www.w3.org/1999/xlink" x="0px" y="0px"
	 viewBox="0 0 50 50" style="enable-background:new 0 0 50 50;" xml:space="preserve">
<style type="text/css">
	.st0{fill:#FFFFFF;}
	.st1{fill:#1E201D;}
</style>
<circle class="st0" cx="25" cy="25" r="25"/>
<g>
	<path class="st1" d="M10.6,23.4l10-10c0.1-0.1,0.2-0.2,0.4-0.2s0.4,0.1,0.5,0.2c0.1,0.1,0.2,0.2,0.2,0.4c0,0.1-0.1,0.3-0.2,0.4
		l-8.9,9h27.8c0.3,0,0.6,0.3,0.6,0.6c0,0.3-0.3,0.6-0.6,0.6H12.7l8.9,8.9c0.2,0.3,0.2,0.7,0,0.9c-0.2,0.1-0.4,0.2-0.5,0.2
		s-0.3-0.1-0.4-0.2l-10-10c-0.1-0.1-0.2-0.2-0.2-0.4C10.5,23.6,10.6,23.4,10.6,23.4z"/>
</g>
</svg>
