<?xml version="1.0" encoding="utf-8"?>
<!-- Generator: Adobe Illustrator 22.0.1, SVG Export Plug-In . SVG Version: 6.00 Build 0)  -->
<svg version="1.1" id="Capa_1" xmlns="http://www.w3.org/2000/svg" xmlns:xlink="http://www.w3.org/1999/xlink" x="0px" y="0px"
	 viewBox="0 0 17 17" style="enable-background:new 0 0 17 17;" xml:space="preserve">
<style type="text/css">
	.st0{fill:#31D9FF;}
</style>
<g>
	<path class="st0" d="M17,12.8c0,0.4-0.1,0.7-0.3,1l-5.4-6l5.3-4.6C16.9,3.4,17,3.8,17,4.3V12.8L17,12.8z M8.5,8.9l7.4-6.5
		c-0.3-0.2-0.6-0.3-1-0.3H2.1c-0.4,0-0.7,0.1-1,0.3L8.5,8.9z M10.6,8.5L8.9,10c-0.1,0.1-0.2,0.1-0.3,0.1c-0.1,0-0.2,0-0.3-0.1
		L6.4,8.5L1,14.6c0.3,0.2,0.7,0.3,1.1,0.3h12.8c0.4,0,0.8-0.1,1.1-0.3L10.6,8.5z M0.3,3.1C0.1,3.4,0,3.8,0,4.3v8.5
		c0,0.4,0.1,0.7,0.3,1l5.4-6L0.3,3.1z"/>
</g>
</svg>
