<?xml version="1.0" encoding="utf-8"?>
<!-- Generator: Adobe Illustrator 22.0.1, SVG Export Plug-In . SVG Version: 6.00 Build 0)  -->
<svg version="1.1" id="Capa_1" xmlns="http://www.w3.org/2000/svg" xmlns:xlink="http://www.w3.org/1999/xlink" x="0px" y="0px"
	 viewBox="0 0 512 341.3" style="enable-background:new 0 0 512 341.3;" xml:space="preserve">
<style type="text/css">
	.st0{fill:#D80027;}
	.st1{fill:#F0F0F0;}
	.st2{fill:#2E52B2;}
</style>
<rect y="0" class="st0" width="512" height="341.3"/>
<polygon class="st1" points="512,210.6 202.2,210.6 202.2,341.3 183.7,341.3 141,341.3 122.4,341.3 122.4,210.6 0,210.6 0,192 
	0,149.3 0,130.8 122.4,130.8 122.4,0 141,0 183.7,0 202.2,0 202.2,130.8 512,130.8 512,149.3 512,192 "/>
<polygon class="st2" points="512,149.3 512,192 183.7,192 183.7,341.3 141,341.3 141,192 0,192 0,149.3 141,149.3 141,0 183.7,0 
	183.7,149.3 "/>
</svg>
