<?xml version="1.0" encoding="utf-8"?>
<!-- Generator: Adobe Illustrator 22.0.1, SVG Export Plug-In . SVG Version: 6.00 Build 0)  -->
<svg version="1.1" id="Capa_1" xmlns="http://www.w3.org/2000/svg" xmlns:xlink="http://www.w3.org/1999/xlink" x="0px" y="0px"
	 viewBox="0 0 16 16" style="enable-background:new 0 0 16 16;" xml:space="preserve">
<style type="text/css">
	.st0{fill:#1966FF;}
</style>
<g>
	<g>
		<path class="st0" d="M12.4,9.8c-0.3-0.3-0.7-0.5-1.1-0.5c-0.4,0-0.8,0.2-1.1,0.5l-1,1c-0.1,0-0.2-0.1-0.2-0.1
			c-0.1-0.1-0.2-0.1-0.3-0.2C7.7,9.9,6.8,9.1,6,8.1C5.6,7.6,5.3,7.2,5.1,6.7C5.4,6.5,5.6,6.2,5.9,6C6,5.9,6.1,5.8,6.2,5.7
			c0.7-0.7,0.7-1.6,0-2.2L5.3,2.6C5.2,2.5,5.1,2.4,5,2.3C4.8,2.1,4.6,1.9,4.4,1.7C4.1,1.4,3.7,1.2,3.3,1.2S2.5,1.4,2.2,1.7
			c0,0,0,0,0,0L1.1,2.8C0.7,3.2,0.5,3.7,0.4,4.3C0.3,5.3,0.6,6.1,0.8,6.7c0.5,1.4,1.3,2.7,2.5,4.1c1.4,1.7,3.1,3,5,3.9
			c0.7,0.4,1.7,0.8,2.8,0.8c0.1,0,0.1,0,0.2,0c0.7,0,1.4-0.3,1.9-0.8c0,0,0,0,0,0c0.2-0.2,0.4-0.4,0.6-0.6c0.1-0.1,0.3-0.3,0.4-0.4
			c0.3-0.3,0.5-0.7,0.5-1.1c0-0.4-0.2-0.8-0.5-1.1L12.4,9.8z M13.6,13.2C13.6,13.2,13.6,13.2,13.6,13.2c-0.1,0.1-0.3,0.3-0.4,0.4
			c-0.2,0.2-0.4,0.4-0.6,0.6c-0.3,0.3-0.7,0.5-1.2,0.5c0,0-0.1,0-0.1,0c-1-0.1-1.8-0.4-2.5-0.8c-1.8-0.9-3.4-2.1-4.7-3.7
			C2.9,8.9,2.1,7.7,1.6,6.4C1.3,5.6,1.2,5,1.3,4.4c0-0.4,0.2-0.7,0.4-1l1.1-1.1C3,2.2,3.1,2.1,3.3,2.1c0.2,0,0.4,0.1,0.5,0.2
			c0,0,0,0,0,0C4,2.5,4.2,2.7,4.4,2.9C4.5,3,4.6,3.1,4.7,3.2l0.9,0.9c0.3,0.3,0.3,0.7,0,1C5.5,5.2,5.4,5.3,5.3,5.4
			C5,5.7,4.7,5.9,4.5,6.2c0,0,0,0,0,0C4.2,6.5,4.2,6.7,4.3,6.9c0,0,0,0,0,0c0.2,0.6,0.6,1.1,1,1.7l0,0c0.9,1.1,1.8,1.9,2.9,2.6
			c0.1,0.1,0.3,0.2,0.4,0.2c0.1,0.1,0.2,0.1,0.3,0.2c0,0,0,0,0,0c0.1,0.1,0.2,0.1,0.3,0.1c0.3,0,0.4-0.2,0.5-0.2l1.1-1.1
			c0.1-0.1,0.3-0.2,0.5-0.2c0.2,0,0.4,0.1,0.5,0.2c0,0,0,0,0,0l1.8,1.8C13.9,12.5,13.9,12.9,13.6,13.2z"/>
		<path class="st0" d="M8.6,4c0.8,0.1,1.6,0.5,2.2,1.2c0.6,0.6,1,1.4,1.2,2.2c0,0.2,0.2,0.4,0.4,0.4c0,0,0,0,0.1,0
			c0.2,0,0.4-0.3,0.4-0.5c-0.2-1-0.7-1.9-1.4-2.7c-0.7-0.7-1.7-1.2-2.7-1.4c-0.2,0-0.5,0.1-0.5,0.4S8.4,4,8.6,4z"/>
		<path class="st0" d="M15.6,7.1c-0.3-1.7-1.1-3.2-2.3-4.4s-2.7-2-4.4-2.3c-0.2,0-0.5,0.1-0.5,0.4c0,0.2,0.1,0.5,0.4,0.5
			c1.5,0.3,2.9,1,4,2c1.1,1.1,1.8,2.5,2,4c0,0.2,0.2,0.4,0.4,0.4c0,0,0,0,0.1,0C15.5,7.5,15.6,7.3,15.6,7.1z"/>
	</g>
</g>
</svg>
