<?xml version="1.0" encoding="utf-8"?>
<!-- Generator: Adobe Illustrator 22.0.1, SVG Export Plug-In . SVG Version: 6.00 Build 0)  -->
<svg version="1.1" id="Слой_1" xmlns="http://www.w3.org/2000/svg" xmlns:xlink="http://www.w3.org/1999/xlink" x="0px" y="0px"
	 viewBox="0 0 50 50" style="enable-background:new 0 0 50 50;" xml:space="preserve">
<style type="text/css">
	.st0{fill:#FFFFFF;}
	.st1{fill:#1E201D;}
</style>
<circle class="st0" cx="25" cy="25" r="25"/>
<g>
	<path class="st1" d="M41,23.8c0,0.2-0.1,0.3-0.2,0.4l-10,10c-0.1,0.1-0.3,0.2-0.4,0.2s-0.3-0.1-0.5-0.2c-0.2-0.2-0.2-0.6,0-0.9
		l8.9-8.9H11.1c-0.3,0-0.6-0.3-0.6-0.6s0.3-0.6,0.6-0.6h27.8l-8.9-9c-0.1-0.1-0.2-0.3-0.2-0.4c0-0.2,0.1-0.3,0.2-0.4
		s0.3-0.2,0.5-0.2s0.3,0.1,0.4,0.2l10,10C40.9,23.4,41,23.6,41,23.8z"/>
</g>
</svg>
