<?xml version="1.0" encoding="utf-8"?>
<!-- Generator: Adobe Illustrator 22.0.1, SVG Export Plug-In . SVG Version: 6.00 Build 0)  -->
<svg version="1.1" id="Capa_1" xmlns="http://www.w3.org/2000/svg" xmlns:xlink="http://www.w3.org/1999/xlink" x="0px" y="0px"
	 viewBox="0 0 512 341.3" style="enable-background:new 0 0 512 341.3;" xml:space="preserve">
<style type="text/css">
	.st0{fill:#F0F0F0;}
	.st1{fill:#0052B4;}
	.st2{fill:#D80027;}
</style>
<rect class="st0" width="512" height="341.3"/>
<rect y="113.8" class="st1" width="512" height="113.8"/>
<rect y="227.6" class="st2" width="512" height="113.8"/>
<path class="st0" d="M233.6,111.3v14.8c0,34.1-44.5,44.5-44.5,44.5s-44.5-10.4-44.5-44.5v-14.8l-0.1-44.2l89-0.3L233.6,111.3z"/>
<path class="st1" d="M233.6,111.3v14.8c0,34.1-44.5,44.5-44.5,44.5s-44.5-10.4-44.5-44.5v-14.8l-0.1-44.2l89-0.3L233.6,111.3z"/>
<path class="st0" d="M233.6,111.3v14.8c0,34.1-44.5,44.5-44.5,44.5s-44.5-10.4-44.5-44.5v-14.8l14.8,14.8l29.7-22.3l29.7,22.3
	L233.6,111.3z"/>
</svg>
