<?xml version="1.0" encoding="utf-8"?>
<!-- Generator: Adobe Illustrator 22.0.1, SVG Export Plug-In . SVG Version: 6.00 Build 0)  -->
<svg version="1.1" id="Capa_1" xmlns="http://www.w3.org/2000/svg" xmlns:xlink="http://www.w3.org/1999/xlink" x="0px" y="0px"
	 viewBox="0 0 512 341.3" style="enable-background:new 0 0 512 341.3;" xml:space="preserve">
<style type="text/css">
	.st0{fill:#F0F0F0;}
	.st1{fill:#0052B4;}
	.st2{fill:#D80027;}
</style>
<rect class="st0" width="512" height="341.3"/>
<rect y="111.3" class="st1" width="512" height="118.7"/>
<rect y="230" class="st2" width="512" height="111.3"/>
<path class="st0" d="M129.5,96.5v85.1c0,48.4,63.3,63.3,63.3,63.3S256,230,256,181.6V96.5H129.5z"/>
<path class="st2" d="M146.1,99v81.9c0,5.5,1.2,10.6,3.6,15.5c23.9,0,59.6,0,86,0c2.4-4.8,3.6-10,3.6-15.5V99H146.1z"/>
<polygon class="st0" points="221.3,156.1 199.9,156.1 199.9,141.8 214.2,141.8 214.2,127.5 199.9,127.5 199.9,113.2 185.6,113.2 
	185.6,127.5 171.3,127.5 171.3,141.8 185.6,141.8 185.6,156.1 164.2,156.1 164.2,170.4 185.6,170.4 185.6,184.7 199.9,184.7 
	199.9,170.4 221.3,170.4 "/>
<path class="st1" d="M169.2,216.3c9.2,5.8,18.7,9.1,23.5,10.6c4.8-1.5,14.3-4.9,23.5-10.6c9.3-5.8,15.8-12.5,19.5-19.9
	c-4.1-2.9-9-4.6-14.4-4.6c-2,0-3.9,0.2-5.7,0.7c-3.9-8.8-12.7-14.9-22.9-14.9c-10.2,0-19,6.1-22.9,14.9c-1.8-0.4-3.7-0.7-5.7-0.7
	c-5.4,0-10.3,1.7-14.4,4.6C153.4,203.8,159.9,210.5,169.2,216.3z"/>
</svg>
