<?xml version="1.0" encoding="utf-8"?>
<!-- Generator: Adobe Illustrator 22.0.1, SVG Export Plug-In . SVG Version: 6.00 Build 0)  -->
<svg version="1.1" id="Слой_1" xmlns="http://www.w3.org/2000/svg" xmlns:xlink="http://www.w3.org/1999/xlink" x="0px" y="0px"
	 viewBox="0 0 409.6 409.4" style="enable-background:new 0 0 409.6 409.4;" xml:space="preserve">
<style type="text/css">
	.st0{fill:#2360A9;}
</style>
<g>
	<path class="st0" d="M192.8,0c8,0,16,0,24,0c2.8,0.3,5.5,0.7,8.3,1c33.1,3.6,63.9,14,91.6,32.5c48.9,32.8,79,78.1,89.7,136.1
		c1.4,7.7,2.1,15.5,3.2,23.2c0,8.3,0,16.5,0,24.8c-0.9,6.6-1.5,13.2-2.6,19.7c-7.2,42.9-25.6,80.3-56.5,111
		c-46,45.8-101.7,66-166.3,60.1c-43.9-4-82.6-21.2-115.4-50.7C26,319.1,2.9,270.7,0.2,213c-1.9-40.4,7.6-78.4,28.7-112.9
		c32.4-53,79.3-85.5,140.5-96.9C177.2,1.8,185,1,192.8,0z M27.3,217.8c3.7,84.3,76.8,160.2,164.5,164.6c0-1.3,0-2.6,0-3.9
		c0-4.7-0.1-9.3,0-14c0.1-9.2,5-14.9,12.9-15c8.1-0.1,13.1,5.7,13.2,15.2c0,4.3,0,8.5,0,12.8c0,1.7,0.1,3.3,0.2,5
		c94.2-5.7,161.9-87.4,164.1-164.8c-7.1,0-14.1,0.3-21.1-0.1c-6.6-0.3-11.4-6-11.5-12.6c-0.1-6.8,4.8-12.5,11.5-13
		c4.6-0.4,9.3-0.2,14-0.2c2.5,0,4.9,0,7.4,0C377.5,101.2,299,30.3,217.8,27.4c0,1.5,0,2.9,0,4.3c0,5.6,0.2,11.2-0.2,16.8
		c-0.4,6.1-5.4,11-11.3,11.5c-6.5,0.6-12.5-3.2-14-9.4c-0.6-2.3-0.5-4.8-0.5-7.1c-0.1-5.4,0-10.8,0-16.3
		C104.2,31.6,31,107.2,27.3,191.8c1.5,0,2.9,0,4.3,0c5.5,0,10.9-0.1,16.4,0.2c7.2,0.4,12.3,6.1,12.1,13.3
		c-0.2,6.9-5.3,12.3-12.5,12.5C40.8,218,34.1,217.8,27.3,217.8z"/>
	<path class="st0" d="M217.9,145c0,16.7,0.1,33.3-0.1,50c0,3,0.8,5.2,3,7.3c20.2,20.1,40.4,40.3,60.6,60.4c4.2,4.2,6.4,8.8,4.4,14.8
		c-2.9,8.5-13,11.7-20.2,6.2c-1.1-0.8-2-1.8-2.9-2.7c-21.8-21.8-43.5-43.6-65.4-65.2c-3.7-3.7-5.5-7.9-5.5-13.1
		c0.1-35.7,0-71.4,0.1-107.2c0-2,0.1-4,0.6-5.9c1.8-6.1,7.7-9.7,14.3-8.9c6,0.7,10.8,5.6,10.9,11.9c0.3,10.9,0.2,21.9,0.2,32.8
		C217.9,132,217.9,138.5,217.9,145z"/>
</g>
</svg>
