<svg id="Capa_1" xmlns="http://www.w3.org/2000/svg" viewBox="0 0 512 341.3">
    <style>
        .st0{fill:#ffda44}.st1{fill:#0052b4}.st2{fill:#d80027}.st3{fill:#ff9811}
    </style>
    <path class="st0" d="M0 0h512v341.3H0z"/>
    <path class="st1" d="M0 0h170.7v341.3H0z"/>
    <path class="st2" d="M341.3 0H512v341.3H341.3z"/>
    <path class="st2" d="M256 230v-59.4h44.5v22.3c0 3.9-7.4 18-25.7 29.7-7 4.4-14.1 5.8-18.8 7.4z"/>
    <path class="st2" d="M211.5 126.1H256v44.5h-44.5z"/>
    <path class="st3" d="M278.3 111.3c0-8.2-6.6-14.8-14.8-14.8-2.7 0-5.2.7-7.4 2-2.2-1.3-4.7-2-7.4-2-8.2 0-14.8 6.6-14.8 14.8h-37.1v74.2c0 27.6 21.9 43.6 39.1 51.9-1.3 2.2-2 4.8-2 7.5 0 8.2 6.6 14.8 14.8 14.8 2.7 0 5.2-.7 7.4-2 2.2 1.3 4.7 2 7.4 2 8.2 0 14.8-6.6 14.8-14.8 0-2.7-.8-5.3-2-7.5 17.2-8.3 39.1-24.3 39.1-51.9v-74.2h-37.1zm14.8 74.2c0 3.9 0 15.6-18.3 27.3-6.9 4.4-14.1 7.3-18.8 8.9-4.7-1.6-11.8-4.5-18.8-8.9-18.3-11.6-18.3-23.4-18.3-27.3v-51.9h74.2v51.9z"/>
</svg>
