<svg id="Layer_1" xmlns="http://www.w3.org/2000/svg" viewBox="0 0 512 335.4">
    <style>
        .st0{fill:#41479b}.st1{fill:#f5f5f5}.st2{fill:#ff4b55}
    </style>
    <path class="st0" d="M503.2 335.4H8.8c-4.9 0-8.8-4-8.8-8.8V8.8C0 4 4 0 8.8 0h494.3c4.9 0 8.8 4 8.8 8.8v317.8c.1 4.9-3.9 8.8-8.7 8.8z"/>
    <path class="st1" d="M247.2 0h-15.3l-81.8 53.6V0H106v53.6L24.2 0H8.8C4 0 0 4 0 8.8v7l70.2 46H0v44.1h70.2L0 151.9v7c0 4.9 4 8.8 8.8 8.8h15.3l81.8-53.6v53.6H150v-53.6l81.8 53.6h15.3c4.9 0 8.8-4 8.8-8.8v-7l-70.2-46H256V61.8h-70.2l70.2-46v-7c0-4.8-4-8.8-8.8-8.8z"/>
    <path class="st2" d="M256 70.6H141.2V0h-26.4v70.6H0v26.5h114.8v70.6h26.4V97.1H256z"/>
    <path class="st2" d="M97.1 61.8L4.2 1.5C1.7 3.1 0 5.7 0 8.8v.5l80.9 52.5h16.2z"/>
    <path class="st2" d="M166.3 61.8l88.4-57.4c-1.5-2.6-4.2-4.4-7.5-4.4h-1.9l-95.2 61.8h16.2z"/>
    <path class="st2" d="M89.5 105.9L1.3 163.2c1.5 2.7 4.3 4.5 7.6 4.5h1.7l95.2-61.8H89.5z"/>
    <path class="st2" d="M255.9 159.6l-82.7-53.7H157l93.9 60.9c2.8-1.2 4.7-4 5-7.2z"/>
    <g>
        <path class="st1" d="M130.7 215.9l6.7 22 21.4-8.5c1.8-.7 3.5 1.4 2.4 3l-13 18.9 20 11.4c1.7 1 1.1 3.6-.8 3.7l-22.9 1.6 3.5 22.7c.3 1.9-2.1 3.1-3.4 1.6l-15.5-16.9-15.5 16.9c-1.3 1.4-3.7.3-3.4-1.6l3.5-22.7-22.9-1.6c-2-.1-2.5-2.7-.8-3.7l20-11.4-13-18.9c-1.1-1.6.5-3.7 2.4-3l21.4 8.5 6.7-22c-.1-1.9 2.6-1.9 3.2 0z"/>
        <path class="st1" d="M393.3 59.5l3.3 10.7L407 66c.9-.4 1.7.7 1.2 1.4l-6.4 9.2 9.8 5.6c.8.5.5 1.7-.4 1.8l-11.2.8 1.7 11.1c.1.9-1 1.5-1.7.8l-7.6-8.3-7.6 8.3c-.6.7-1.8.1-1.7-.8l1.7-11.1-11.2-.8c-1-.1-1.2-1.3-.4-1.8l9.8-5.6-6.4-9.2c-.5-.8.3-1.8 1.2-1.4l10.4 4.2 3.3-10.7c.2-1 1.5-1 1.8 0z"/>
        <path class="st1" d="M320.7 141.9l3.3 10.7 10.4-4.2c.9-.4 1.7.7 1.2 1.4l-6.4 9.2 9.8 5.6c.8.5.5 1.7-.4 1.8l-11.2.8 1.7 11.1c.1.9-1 1.5-1.7.8l-7.6-8.3-7.6 8.3c-.6.7-1.8.1-1.7-.8l1.7-11.1-11.2-.8c-1-.1-1.2-1.3-.4-1.8l9.8-5.6-6.4-9c-.5-.8.3-1.8 1.2-1.4l10.4 4.2 3.3-10.7c.2-1.1 1.5-1.1 1.8-.2z"/>
        <path class="st1" d="M461.9 106.6l3.3 10.7 10.4-4.2c.9-.4 1.7.7 1.2 1.4l-6.4 9.2 9.8 5.6c.8.5.5 1.7-.4 1.8l-11.2.8 1.7 11.1c.1.9-1 1.5-1.7.8l-7.6-8.3-7.6 8.3c-.6.7-1.8.1-1.7-.8l1.7-11.1-11.2-.8c-1-.1-1.2-1.3-.4-1.8l9.8-5.6-6.4-9.2c-.5-.8.3-1.8 1.2-1.4l10.4 4.2 3.3-10.7c.3-.9 1.6-.9 1.8 0z"/>
        <path class="st1" d="M393.3 247.9l3.3 10.7 10.4-4.2c.9-.4 1.7.7 1.2 1.4l-6.4 9.2 9.8 5.6c.8.5.5 1.7-.4 1.8l-11.2.8 1.7 11.1c.1.9-1 1.5-1.7.8l-7.6-8.3-7.6 8.3c-.6.7-1.8.1-1.7-.8l1.7-11.1-11.2-.8c-1-.1-1.2-1.3-.4-1.8l9.8-5.6-6.4-9.2c-.5-.8.3-1.8 1.2-1.4l10.4 4.2 3.3-10.7c.2-1 1.5-1 1.8 0z"/>
        <path class="st1" d="M418.5 161.2l-2.6 7.8-8.3.1c-1.1 0-1.5 1.4-.7 2l6.6 4.9-2.5 7.9c-.3 1 .8 1.9 1.7 1.2l6.7-4.8 6.7 4.8c.9.6 2-.2 1.7-1.2l-2.5-7.9 6.6-4.9c.9-.6.4-2-.7-2l-8.3-.1-2.6-7.8c-.1-1-1.5-1-1.8 0z"/>
    </g>
</svg>
