<svg id="Capa_1" xmlns="http://www.w3.org/2000/svg" viewBox="0 0 16 16">
    <style>
        .st0{fill:#1966ff}
    </style>
    <path class="st0" d="M7.9 8.6c.1 0 .1 0 0 0 .1 0 .1 0 0 0H8c1 0 1.7-.4 2.3-1 1.2-1.4 1-3.8 1-4.1 0-1.7-.8-2.5-1.5-2.9C9.3.3 8.7.2 8 .2c-.4 0-1.1.1-1.7.4-.7.4-1.6 1.2-1.7 3 0 .2-.2 2.6 1 4.1.6.6 1.4.9 2.3.9zm-2.4-5C5.6 1.3 7.3 1 8 1c.9 0 2.4.4 2.5 2.6 0 0 .2 2.2-.8 3.4-.4.5-1 .7-1.7.7S6.7 7.5 6.3 7c-1-1.1-.8-3.3-.8-3.4z"/>
    <path class="st0" d="M14.7 12.6s0-.1 0 0c0-.7-.1-2.2-1.5-2.7-1.5-.4-2.7-1.2-2.7-1.2-.2-.2-.5-.1-.6.1-.2.2-.1.4.1.6.1 0 1.3.9 3 1.4.8.3.8 1.1.9 1.8v.1c0 .3 0 .7-.1 1-.6.2-2.7 1.3-5.8 1.3-3.1 0-5.2-1-5.7-1.3-.1-.3-.1-.7-.1-1v-.1c0-.7.1-1.5.9-1.8C4.7 10.3 6 9.4 6 9.4c.2-.2.3-.4.1-.6-.1-.2-.4-.3-.6-.1 0 0-1.2.9-2.7 1.2-1.4.5-1.4 2-1.5 2.6v.1c0 .2 0 1 .2 1.5 0 .1.1.2.2.2.1.1 2.4 1.6 6.3 1.6s6.2-1.5 6.3-1.6c.1 0 .1-.1.2-.2.2-.5.2-1.3.2-1.5z"/>
</svg>
