<svg id="Capa_1" xmlns="http://www.w3.org/2000/svg" viewBox="0 0 512 341.3">
    <style>
        .st0{fill:#d80027}.st1{fill:#ffda44}
    </style>
    <path class="st0" d="M0 0h512v341.3H0z"/>
    <path class="st1" d="M178.9 104.2l14.7 45.1H241l-38.4 27.9 14.7 45.1-38.4-27.8-38.3 27.8 14.6-45.1-38.4-27.9h47.5z"/>
    <path class="st1" d="M271.3 254.3l-14.4-10.5-14.4 10.5 5.5-17-14.4-10.4h17.8l5.5-16.9 5.5 16.9h17.8l-14.4 10.4z"/>
    <path class="st1" d="M308.8 202.6h-17.7l-5.5 16.9-5.5-16.9h-17.8l14.4-10.5-5.5-16.9 14.4 10.5 14.3-10.5-5.5 16.9z"/>
    <path class="st1" d="M308.8 138.7l-14.4 10.5 5.5 16.9-14.3-10.5-14.4 10.5 5.5-16.9-14.4-10.5h17.8l5.5-16.9 5.5 16.9z"/>
    <path class="st1" d="M271.3 87.1l-5.5 16.9 14.4 10.4h-17.8l-5.5 17-5.5-17h-17.8L248 104l-5.5-16.9 14.4 10.4z"/>
</svg>
