<svg id="Layer_1" xmlns="http://www.w3.org/2000/svg" viewBox="0 0 512 335.4">
    <style>
        .st0{fill:#f5f5f5}.st1{fill:#41479b}
    </style>
    <path class="st0" d="M0 37.3h512v37.3H0z"/>
    <path class="st0" d="M0 111.8h512v37.3H0z"/>
    <path class="st0" d="M0 186.4h512v37.3H0z"/>
    <path class="st1" d="M0 223.6h512v37.3H0z"/>
    <path class="st0" d="M0 260.9h512v37.3H0z"/>
    <g>
        <path class="st1" d="M8.8 335.4h494.3c4.9 0 8.8-4 8.8-8.8v-28.4H0v28.4c0 4.9 4 8.8 8.8 8.8z"/>
        <path class="st1" d="M512 37.3V8.8c0-4.9-4-8.8-8.8-8.8H8.8C4 0 0 4 0 8.8v177.5h512V149H176.6v-37.3H512V74.5H176.6V37.3H512z"/>
    </g>
    <path class="st0" d="M176.6 74.5h-69.7V0H69.6v74.5H0v37.3h69.6v74.6h37.3v-74.6h69.7z"/>
</svg>
