<svg id="Layer_1" xmlns="http://www.w3.org/2000/svg" viewBox="0 0 512 335.4">
    <style>
        .st0{fill:#fab446}.st1{fill:#73af00}.st2{fill:#f5f5f5}.st3{fill:#41479b}
    </style>
    <path class="st0" d="M512 111.8H0V8.8C0 4 4 0 8.8 0h494.3c4.9 0 8.8 4 8.8 8.8l.1 103z"/>
    <path class="st1" d="M503.2 335.4H8.8c-4.9 0-8.8-4-8.8-8.8v-103h512v103c0 4.9-4 8.8-8.8 8.8z"/>
    <path class="st2" d="M0 111.8h512v111.8H0z"/>
    <path class="st3" d="M256 215.2c-26.2 0-47.4-21.3-47.4-47.4s21.3-47.4 47.4-47.4 47.4 21.3 47.4 47.4-21.2 47.4-47.4 47.4zm0-86.1c-21.3 0-38.6 17.3-38.6 38.6s17.3 38.6 38.6 38.6 38.6-17.3 38.6-38.6-17.3-38.6-38.6-38.6z"/>
    <circle class="st3" cx="256" cy="167.7" r="5.4"/>
    <path class="st3" d="M256 168.5l-13.7 1.4-29.3-1.4v-1.6l29.3-1.4 13.7 1.4z"/>
    <path class="st3" d="M256 168.5l13.7 1.4 29.3-1.4v-1.6l-29.3-1.4-13.7 1.4z"/>
    <path class="st3" d="M255.2 167.7l-1.4-13.6 1.4-29.4h1.6l1.4 29.4-1.4 13.6z"/>
    <path class="st3" d="M255.2 167.7l-1.4 13.7 1.4 29.4h1.6l1.4-29.4-1.4-13.7z"/>
    <path class="st3" d="M255.4 168.3l-10.6-8.7-19.8-21.7 1.1-1.2 21.8 19.8 8.7 10.7z"/>
    <path class="st3" d="M255.4 168.3l8.7 10.6 21.8 19.8 1.1-1.1-19.8-21.8-10.6-8.6z"/>
    <path class="st3" d="M255.4 167.2l8.7-10.7 21.8-19.8 1.1 1.2-19.8 21.7-10.6 8.7z"/>
    <path class="st3" d="M255.4 167.2l-10.6 8.6-19.8 21.8 1.1 1.1 21.8-19.8 8.7-10.6z"/>
    <path class="st3" d="M256.3 168.5l-12.1 6.5-27.6 9.9-.7-1.5 26.6-12.5 13.2-3.9z"/>
    <path class="st3" d="M256.3 168.5l13.2-4 26.6-12.5-.7-1.5-27.6 10-12.1 6.5z"/>
    <path class="st3" d="M255.3 168l-6.6-12.1-9.9-27.6 1.5-.6 12.5 26.6 3.9 13.1z"/>
    <path class="st3" d="M255.3 168l3.9 13.2 12.5 26.6 1.5-.6-9.9-27.7-6.6-12.1z"/>
    <path class="st3" d="M255.7 168.5l-13.2-4-26.6-12.5.7-1.5 27.6 10 12.1 6.5z"/>
    <path class="st3" d="M255.7 168.5l12.1 6.5 27.6 9.9.7-1.5-26.6-12.5-13.2-3.9z"/>
    <path class="st3" d="M255.3 167.4l3.9-13.1 12.5-26.6 1.5.6-9.9 27.6-6.6 12.1z"/>
    <path class="st3" d="M255.3 167.4l-6.6 12.1-9.9 27.7 1.5.6 12.5-26.6 3.9-13.2z"/>
    <circle class="st2" cx="256" cy="167.7" r="7.3"/>
    <circle class="st3" cx="256" cy="167.7" r="4.4"/>
</svg>
