<svg id="Capa_1" xmlns="http://www.w3.org/2000/svg" viewBox="0 0 512 341.3">
    <style>
        .st0{fill:#0052b4}.st1{fill:#d80027}.st2{fill:#f0f0f0}
    </style>
    <path class="st0" d="M0 0h512v341.3H0z"/>
    <path class="st1" d="M425.3 148.4l3.4 10.4h11l-8.9 6.5 3.4 10.4-8.9-6.4-8.9 6.4 3.4-10.4-8.9-6.5h11z"/>
    <path class="st1" d="M386.1 223.5l5.1 15.6h16.4l-13.3 9.7 5.1 15.6-13.3-9.6-13.3 9.6 5.1-15.6-13.3-9.7H381z"/>
    <path class="st1" d="M387.6 100.6l4.2 13.1h13.7l-11.1 8 4.3 13.1-11.1-8.1-11.1 8.1 4.2-13.1-11.1-8h13.8z"/>
    <path class="st1" d="M349.9 148l5.1 15.6h16.4l-13.3 9.7 5.1 15.6-13.3-9.7-13.3 9.7 5.1-15.6-13.4-9.7h16.5z"/>
    <path class="st2" d="M256 0v30.6l-45.2 25.1H256V115h-59.1l59.1 32.9v22.8h-26.7l-73.5-40.9v40.9h-55.6v-48.6l-87.5 48.6H0v-30.6L45.2 115H0V55.7h59.1L0 22.8V0h26.7l73.5 40.8V0h55.6v48.6L243.3 0z"/>
    <path class="st1" d="M144 0h-32v69.3H0v32h112v69.4h32v-69.4h112v-32H144z"/>
    <path class="st0" d="M155.8 115L256 170.7v-15.8L184.2 115z"/>
    <path class="st2" d="M155.8 115L256 170.7v-15.8L184.2 115z"/>
    <path class="st1" d="M155.8 115L256 170.7v-15.8L184.2 115z"/>
    <path class="st1" d="M71.8 115L0 154.9v15.8L100.2 115z"/>
    <path class="st0" d="M100.2 55.7L0 0v15.7l71.8 40z"/>
    <path class="st2" d="M100.2 55.7L0 0v15.7l71.8 40z"/>
    <g>
        <path class="st1" d="M100.2 55.7L0 0v15.7l71.8 40z"/>
        <path class="st1" d="M184.2 55.7l71.8-40V0L155.8 55.7z"/>
    </g>
</svg>
