<svg id="Layer_1" xmlns="http://www.w3.org/2000/svg" viewBox="0 0 489.6 489.6">
    <style>
        .st0{fill:#1966ff}
    </style>
    <path class="st0" d="M489.6 244.8C489.6 109.8 379.8 0 244.8 0S0 109.8 0 244.8s109.8 244.8 244.8 244.8 244.8-109.8 244.8-244.8zm-19.8 0c0 124.1-100.9 225-225 225s-225-100.9-225-225 100.9-225 225-225 225 100.9 225 225z"/>
    <path class="st0" d="M298.4 251.8c3.9-3.9 3.9-10.1 0-14l-74.3-74.3c-3.9-3.9-10.1-3.9-14 0s-3.9 10.1 0 14l67.3 67.3-67.3 67.3c-3.9 3.9-3.9 10.1 0 14 1.9 1.9 4.5 2.9 7 2.9s5.1-1 7-2.9l74.3-74.3z"/>
</svg>
