<svg id="Capa_1" xmlns="http://www.w3.org/2000/svg" viewBox="0 0 16 16">
    <style>
        .st0{fill:#1966ff}
    </style>
    <path class="st0" d="M12.4 9.8c-.3-.3-.7-.5-1.1-.5-.4 0-.8.2-1.1.5l-1 1c-.1 0-.2-.1-.2-.1-.1-.1-.2-.1-.3-.2-1-.6-1.9-1.4-2.7-2.4-.4-.5-.7-.9-.9-1.4.3-.2.5-.5.8-.7l.3-.3c.7-.7.7-1.6 0-2.2l-.9-.9-.3-.3-.6-.6c-.3-.3-.7-.5-1.1-.5s-.8.2-1.1.5L1.1 2.8c-.4.4-.6.9-.7 1.5-.1 1 .2 1.8.4 2.4.5 1.4 1.3 2.7 2.5 4.1 1.4 1.7 3.1 3 5 3.9.7.4 1.7.8 2.8.8h.2c.7 0 1.4-.3 1.9-.8l.6-.6.4-.4c.3-.3.5-.7.5-1.1 0-.4-.2-.8-.5-1.1l-1.8-1.7zm1.2 3.4l-.4.4-.6.6c-.3.3-.7.5-1.2.5h-.1c-1-.1-1.8-.4-2.5-.8-1.8-.9-3.4-2.1-4.7-3.7-1.2-1.3-2-2.5-2.5-3.8-.3-.8-.4-1.4-.3-2 0-.4.2-.7.4-1l1.1-1.1c.2-.1.3-.2.5-.2s.4.1.5.2l.6.6.3.3.9.9c.3.3.3.7 0 1l-.3.3c-.3.3-.6.5-.8.8-.3.3-.3.5-.2.7.2.6.6 1.1 1 1.7.9 1.1 1.8 1.9 2.9 2.6.1.1.3.2.4.2.1.1.2.1.3.2.1.1.2.1.3.1.3 0 .4-.2.5-.2l1.1-1.1c.1-.1.3-.2.5-.2s.4.1.5.2l1.8 1.8c.3.3.3.7 0 1z"/>
    <path class="st0" d="M8.6 4c.8.1 1.6.5 2.2 1.2.6.6 1 1.4 1.2 2.2 0 .2.2.4.4.4h.1c.2 0 .4-.3.4-.5-.2-1-.7-1.9-1.4-2.7-.7-.7-1.7-1.2-2.7-1.4-.2 0-.5.1-.5.4s.1.4.3.4z"/>
    <path class="st0" d="M15.6 7.1c-.3-1.7-1.1-3.2-2.3-4.4S10.6.7 8.9.4c-.2 0-.5.1-.5.4 0 .2.1.5.4.5 1.5.3 2.9 1 4 2 1.1 1.1 1.8 2.5 2 4 0 .2.2.4.4.4h.1c.2-.2.3-.4.3-.6z"/>
</svg>
