<svg xmlns="http://www.w3.org/2000/svg" viewBox="0 0 503.6 503.6">
    <path d="M495.2 235h-58.8v-16.8c0-5-3.4-8.4-8.4-8.4V193c5 0 8.4-3.4 8.4-8.4 0-32.7-26-58.8-58.8-58.8s-58.8 26-58.8 58.8c0 5 3.4 8.4 8.4 8.4v16.8c-5 0-8.4 3.4-8.4 8.4V235h-99.9v-50.4c0-24.3-11.8-47-31.9-61.3-3.4-1.7-7.6-1.7-10.1 0-20.1 14.3-47.8 14.3-68 0-3.4-1.7-7.6-1.7-10.1 0-20.1 14.3-31.9 36.9-31.9 61.3V235H8.4c-5 0-8.4 3.4-8.4 8.4v50.4c0 5 3.4 8.4 8.4 8.4v176.3c0 14.3 10.9 25.2 25.2 25.2H470c14.3 0 25.2-10.9 25.2-25.2V302.2c5 0 8.4-3.4 8.4-8.4v-50.4c0-5-3.4-8.4-8.4-8.4zm-117.5-92.3c20.1 0 36.9 14.3 41.1 33.6h-82.3c4.3-19.3 21.1-33.6 41.2-33.6zM344.1 193h67.1v16.8h-67.1V193zm-8.4 33.6h83.9v8.4h-83.9v-8.4zm-193-72.2l14.3 15.1-14.3 24.3-14.3-24.3 14.3-15.1zm-58.8 30.3c0-16.8 7.6-32.7 20.1-44.5 6.5 4 13.5 6.8 20.8 8.6L111.6 162c-3.4 2.5-3.4 6.7-1.7 10.1l25.2 42c1.7 2.5 4.2 4.2 7.6 4.2s5.9-1.7 7.6-4.2l25.2-42c1.7-3.4.8-7.6-1.7-10.1l-13.3-13.3c7.3-1.8 14.3-4.6 20.8-8.6 12.6 11.8 20.1 27.7 20.1 44.5V235H83.9v-50.3zm-67.1 67.1h470.1v33.6h-470v-33.6zm461.6 167.9H428c-5 0-8.4 3.4-8.4 8.4s3.4 8.4 8.4 8.4h50.4v16.8H428c-5 0-8.4 3.4-8.4 8.4s3.4 8.4 8.4 8.4h50.4v8.4c0 5-3.4 8.4-8.4 8.4H33.6c-5 0-8.4-3.4-8.4-8.4V470h50.4c5 0 8.4-3.4 8.4-8.4s-3.4-8.4-8.4-8.4H25.2v-16.8h50.4c5 0 8.4-3.4 8.4-8.4s-3.4-8.4-8.4-8.4H25.2V302.2h453.2v117.5z"/>
    <path d="M142.7 117.5c32.7 0 58.8-26 58.8-58.8S175.4 0 142.7 0 83.9 26 83.9 58.8c0 32.7 26.1 58.7 58.8 58.7zm0-100.7c23.5 0 42 18.5 42 42s-18.5 42-42 42-42-18.5-42-42 18.5-42 42-42z"/>
    <path d="M243.4 470c42 0 75.5-33.6 75.5-75.5S285.4 319 243.4 319s-75.5 33.6-75.5 75.5c0 42 33.5 75.5 75.5 75.5zm0-134.3c32.7 0 58.8 26 58.8 58.8s-26 58.8-58.8 58.8-58.8-26-58.8-58.8 26.1-58.8 58.8-58.8z"/>
    <path d="M243.4 436.5c5 0 8.4-3.4 8.4-8.4s-3.4-8.4-8.4-8.4c-14.3 0-25.2-10.9-25.2-25.2 0-5-3.4-8.4-8.4-8.4s-8.4 3.4-8.4 8.4c0 23.5 18.5 42 42 42z"/>
    <path d="M243.4 369.3c14.3 0 25.2 10.9 25.2 25.2 0 5 3.4 8.4 8.4 8.4s8.4-3.4 8.4-8.4c0-23.5-18.5-42-42-42-5 0-8.4 3.4-8.4 8.4s3.4 8.4 8.4 8.4z"/>
</svg>
