<svg id="Capa_1" xmlns="http://www.w3.org/2000/svg" viewBox="0 0 512 341.3">
    <style>
        .st0{fill:#f0f0f0}.st1{fill:#0052b4}.st2{fill:#d80027}
    </style>
    <path class="st0" d="M0 0h512v341.3H0z"/>
    <path class="st1" d="M0 111.3h512V230H0z"/>
    <path class="st2" d="M0 230h512v111.3H0z"/>
    <path class="st0" d="M129.5 96.5v85.1c0 48.4 63.3 63.3 63.3 63.3S256 230 256 181.6V96.5H129.5z"/>
    <path class="st2" d="M146.1 99v81.9c0 5.5 1.2 10.6 3.6 15.5h86c2.4-4.8 3.6-10 3.6-15.5V99h-93.2z"/>
    <path class="st0" d="M221.3 156.1h-21.4v-14.3h14.3v-14.3h-14.3v-14.3h-14.3v14.3h-14.3v14.3h14.3v14.3h-21.4v14.3h21.4v14.3h14.3v-14.3h21.4z"/>
    <path class="st1" d="M169.2 216.3c9.2 5.8 18.7 9.1 23.5 10.6 4.8-1.5 14.3-4.9 23.5-10.6 9.3-5.8 15.8-12.5 19.5-19.9-4.1-2.9-9-4.6-14.4-4.6-2 0-3.9.2-5.7.7-3.9-8.8-12.7-14.9-22.9-14.9s-19 6.1-22.9 14.9c-1.8-.4-3.7-.7-5.7-.7-5.4 0-10.3 1.7-14.4 4.6 3.7 7.4 10.2 14.1 19.5 19.9z"/>
</svg>
