<svg id="Capa_1" xmlns="http://www.w3.org/2000/svg" viewBox="0 0 512 341.3">
    <style>
        .st0{fill:#f0f0f0}.st1{fill:#0052b4}.st2{fill:#d80027}
    </style>
    <path class="st0" d="M0 0h512v341.3H0z"/>
    <path class="st1" d="M0 113.8h512v113.8H0z"/>
    <path class="st2" d="M0 227.6h512v113.8H0z"/>
    <path class="st0" d="M233.6 111.3v14.8c0 34.1-44.5 44.5-44.5 44.5s-44.5-10.4-44.5-44.5v-14.8l-.1-44.2 89-.3.1 44.5z"/>
    <path class="st1" d="M233.6 111.3v14.8c0 34.1-44.5 44.5-44.5 44.5s-44.5-10.4-44.5-44.5v-14.8l-.1-44.2 89-.3.1 44.5z"/>
    <path class="st0" d="M233.6 111.3v14.8c0 34.1-44.5 44.5-44.5 44.5s-44.5-10.4-44.5-44.5v-14.8l14.8 14.8 29.7-22.3 29.7 22.3 14.8-14.8z"/>
</svg>
