<svg id="Слой_1" xmlns="http://www.w3.org/2000/svg" viewBox="0 0 409.6 409.4">
    <style>
        .st0{fill:#2360a9}
    </style>
    <path class="st0" d="M192.8 0h24c2.8.3 5.5.7 8.3 1 33.1 3.6 63.9 14 91.6 32.5 48.9 32.8 79 78.1 89.7 136.1 1.4 7.7 2.1 15.5 3.2 23.2v24.8c-.9 6.6-1.5 13.2-2.6 19.7-7.2 42.9-25.6 80.3-56.5 111-46 45.8-101.7 66-166.3 60.1-43.9-4-82.6-21.2-115.4-50.7C26 319.1 2.9 270.7.2 213c-1.9-40.4 7.6-78.4 28.7-112.9 32.4-53 79.3-85.5 140.5-96.9C177.2 1.8 185 1 192.8 0zM27.3 217.8C31 302.1 104.1 378 191.8 382.4v-3.9c0-4.7-.1-9.3 0-14 .1-9.2 5-14.9 12.9-15 8.1-.1 13.1 5.7 13.2 15.2v12.8c0 1.7.1 3.3.2 5 94.2-5.7 161.9-87.4 164.1-164.8-7.1 0-14.1.3-21.1-.1-6.6-.3-11.4-6-11.5-12.6-.1-6.8 4.8-12.5 11.5-13 4.6-.4 9.3-.2 14-.2h7.4c-5-90.6-83.5-161.5-164.7-164.4v4.3c0 5.6.2 11.2-.2 16.8-.4 6.1-5.4 11-11.3 11.5-6.5.6-12.5-3.2-14-9.4-.6-2.3-.5-4.8-.5-7.1-.1-5.4 0-10.8 0-16.3-87.6 4.4-160.8 80-164.5 164.6h4.3c5.5 0 10.9-.1 16.4.2 7.2.4 12.3 6.1 12.1 13.3-.2 6.9-5.3 12.3-12.5 12.5-6.8.2-13.5 0-20.3 0z"/>
    <path class="st0" d="M217.9 145c0 16.7.1 33.3-.1 50 0 3 .8 5.2 3 7.3 20.2 20.1 40.4 40.3 60.6 60.4 4.2 4.2 6.4 8.8 4.4 14.8-2.9 8.5-13 11.7-20.2 6.2-1.1-.8-2-1.8-2.9-2.7-21.8-21.8-43.5-43.6-65.4-65.2-3.7-3.7-5.5-7.9-5.5-13.1.1-35.7 0-71.4.1-107.2 0-2 .1-4 .6-5.9 1.8-6.1 7.7-9.7 14.3-8.9 6 .7 10.8 5.6 10.9 11.9.3 10.9.2 21.9.2 32.8V145z"/>
</svg>
