<svg id="Capa_1" xmlns="http://www.w3.org/2000/svg" viewBox="0 0 512 341.3">
    <style>
        .st0{fill:#f0f0f0}.st1{fill:#d80027}.st2{fill:#2e52b2}
    </style>
    <path class="st0" d="M0 0h512v341.3H0z"/>
    <path class="st1" d="M0 42.7h512v42.7H0z"/>
    <path class="st1" d="M0 128h512v42.7H0z"/>
    <path class="st1" d="M0 213.3h512V256H0z"/>
    <path class="st1" d="M0 298.7h512v42.7H0z"/>
    <path class="st2" d="M0 0h256v183.8H0z"/>
    <g>
        <path class="st0" d="M99.8 75.3L95.7 88H82.4l10.8 7.8-4.2 12.7 10.8-7.8 10.8 7.8-4.1-12.7 10.8-7.8h-13.4z"/>
        <path class="st0" d="M103.9 133.7l-4.1-12.6-4.1 12.6H82.4l10.8 7.9-4.2 12.7 10.8-7.9 10.8 7.9-4.1-12.7 10.8-7.9z"/>
        <path class="st0" d="M47.6 133.7l-4.1-12.6-4.2 12.6H26l10.8 7.9-4.1 12.7 10.8-7.9 10.7 7.9-4.1-12.7 10.8-7.9z"/>
        <path class="st0" d="M43.5 75.3L39.3 88H26l10.8 7.8-4.1 12.7 10.8-7.8 10.7 7.8-4.1-12.7L60.9 88H47.6z"/>
        <path class="st0" d="M99.8 29.5l-4.1 12.7H82.4L93.2 50 89 62.7l10.8-7.8 10.8 7.8-4.1-12.7 10.8-7.8h-13.4z"/>
        <path class="st0" d="M43.5 29.5l-4.2 12.7H26L36.8 50l-4.1 12.7 10.8-7.8 10.7 7.8L50.1 50l10.8-7.8H47.6z"/>
        <path class="st0" d="M156.2 75.3L152.1 88h-13.4l10.8 7.8-4.1 12.7 10.8-7.8 10.8 7.8-4.2-12.7 10.8-7.8h-13.3z"/>
        <path class="st0" d="M160.3 133.7l-4.1-12.6-4.1 12.6h-13.4l10.8 7.9-4.1 12.7 10.8-7.9 10.8 7.9-4.2-12.7 10.8-7.9z"/>
        <path class="st0" d="M216.7 133.7l-4.2-12.6-4.1 12.6h-13.3l10.8 7.9-4.1 12.7 10.7-7.9 10.8 7.9-4.1-12.7 10.8-7.9z"/>
        <path class="st0" d="M212.5 75.3L208.4 88h-13.3l10.8 7.8-4.1 12.7 10.7-7.8 10.8 7.8-4.1-12.7L230 88h-13.3z"/>
        <path class="st0" d="M156.2 29.5l-4.1 12.7h-13.4l10.8 7.8-4.1 12.7 10.8-7.8 10.8 7.8-4.2-12.7 10.8-7.8h-13.3z"/>
        <path class="st0" d="M212.5 29.5l-4.1 12.7h-13.3l10.8 7.8-4.1 12.7 10.7-7.8 10.8 7.8-4.1-12.7 10.8-7.8h-13.3z"/>
    </g>
</svg>
