<?xml version="1.0" encoding="utf-8"?>
<!-- Generator: Adobe Illustrator 22.0.1, SVG Export Plug-In . SVG Version: 6.00 Build 0)  -->
<svg version="1.1" id="Слой_1" xmlns="http://www.w3.org/2000/svg" xmlns:xlink="http://www.w3.org/1999/xlink" x="0px" y="0px"
	 viewBox="0 0 244.2 63.3" style="enable-background:new 0 0 244.2 63.3;" xml:space="preserve">
<style type="text/css">
	.st0{fill:#FFFFFF;}
</style>
<g>
	<g>
		<path class="st0" d="M6.1,62.2v-8.4H1.7v-0.6h9.9v0.6H7.2v8.4H6.1z"/>
		<path class="st0" d="M7.3,62.5H5.8v-8.4H1.4V53h10.4v1.1H7.3L7.3,62.5L7.3,62.5z M6.3,62h0.5v-8.4h4.4v-0.2H1.8v0.1h4.4L6.3,62
			L6.3,62z"/>
	</g>
	<g>
		<path class="st0" d="M13.8,62.2v-9.1h8.4v0.6h-7.4v3.4H21v0.6h-6.3v3.7h7.4V62h-8.3V62.2z"/>
		<path class="st0" d="M22.4,62.5h-8.9v-9.6h8.9V54H15v2.9h6.3V58H15v3.2h7.4V62.5z M14,62h7.9v-0.1h-7.4v-4.2h6.3v-0.1h-6.3v-3.9
			h7.4v-0.3H14V62z"/>
	</g>
	<g>
		<path class="st0" d="M34.4,62.2l-4.9-4.1l-4.9,4.1h-1.3l5.6-4.6c-0.9-0.7-1.7-1.5-2.7-2.2c-0.9-0.8-1.8-1.5-2.7-2.2H25l4.5,3.9
			l4.6-3.9h1.3l-5.3,4.4c0.9,0.8,1.8,1.5,2.8,2.3s1.9,1.6,2.8,2.3L34.4,62.2L34.4,62.2z"/>
		<path class="st0" d="M36.4,62.5h-2.1l-4.7-4.1l-4.8,4.1h-2.1l5.9-4.9l-2.4-2c-0.9-0.8-1.8-1.5-2.7-2.2L23,52.9h2.1l4.4,3.8
			l4.5-3.8h2.1l-5.6,4.6c0.8,0.7,1.7,1.4,2.6,2.1c1,0.8,1.9,1.6,2.8,2.3L36.4,62.5z M34.5,62H35c-0.7-0.6-1.5-1.2-2.2-1.9
			c-1-0.8-1.9-1.6-2.8-2.3l-0.2-0.2l5-4.2h-0.6l-4.7,4l-4.6-4h-0.6c0.7,0.6,1.4,1.2,2.1,1.8l2.9,2.4L24,62h0.5l5-4.2L34.5,62z"/>
	</g>
	<g>
		<path class="st0" d="M41,62.2v-8.4h-4.4v-0.6h9.9v0.6H42v8.4H41z"/>
		<path class="st0" d="M42.2,62.5h-1.5v-8.4h-4.4V53h10.3v1.1h-4.4V62.5z M41.2,62h0.5v-8.4h4.4v-0.2h-9.4v0.1h4.4L41.2,62L41.2,62z
			"/>
	</g>
	<g>
		<path class="st0" d="M48.6,62.2v-9.1h1v9.1H48.6z"/>
		<path class="st0" d="M49.8,62.5h-1.5v-9.6h1.5V62.5z M48.8,62h0.5v-8.6h-0.5V62z"/>
	</g>
	<g>
		<path class="st0" d="M52.3,62.2v-9.1h1v8.4h6.6v0.6L52.3,62.2L52.3,62.2z"/>
		<path class="st0" d="M60.2,62.5h-8.1v-9.6h1.5v8.4h6.6V62.5z M52.6,62h7.1v-0.1h-6.6v-8.5h-0.5V62z"/>
	</g>
	<g>
		<path class="st0" d="M62.1,62.2v-9.1h8.4v0.6H63v3.4h6.3v0.6H63v3.7h7.4V62h-8.3V62.2z"/>
		<path class="st0" d="M70.7,62.5h-8.9v-9.6h8.9V54h-7.4v2.9h6.3V58h-6.3v3.2h7.4V62.5z M62.3,62h7.9v-0.1h-7.4v-4.2h6.3v-0.1h-6.3
			v-3.9h7.4v-0.3h-7.9V62z"/>
	</g>
	<g>
		<path class="st0" d="M88.1,62.2l-1.7-2.8h-6.6l-1.7,2.8H77l5.6-9.1h1l5.6,9.1H88.1z M83.1,54l-2.9,4.8h5.9L83.1,54z"/>
		<path class="st0" d="M89.6,62.5H88l-1.7-2.8H80l-1.7,2.8h-1.7l5.9-9.6h1.2L89.6,62.5z M88.2,62h0.5l-5.3-8.6h-0.7L77.3,62h0.5
			l1.7-2.8h6.9L88.2,62z M86.5,59.1h-6.8l3.4-5.5L86.5,59.1z M80.6,58.6h5l-2.5-4.1L80.6,58.6z"/>
	</g>
	<g>
		<path class="st0" d="M100.7,62.2L92,54.3v7.9h-1v-9.1h0.9l8.6,7.8v-7.8h1v9.1H100.7z"/>
		<path class="st0" d="M101.8,62.5h-1.2l-8.3-7.6v7.6h-1.5v-9.6H92l8.3,7.5v-7.5h1.5V62.5z M100.8,62h0.5v-8.6h-0.5v8.1l-9-8.1h-0.5
			V62h0.5v-8.2L100.8,62z"/>
	</g>
	<g>
		<path class="st0" d="M104.8,62.2v-9.1h4.1c1,0,2,0.1,2.8,0.4c0.8,0.2,1.5,0.6,2.1,1s1,0.9,1.3,1.4s0.5,1.1,0.5,1.7
			s-0.2,1.2-0.5,1.7s-0.7,1-1.3,1.4s-1.3,0.7-2.1,1c-0.8,0.2-1.8,0.4-2.8,0.4L104.8,62.2L104.8,62.2z M108.8,61.6
			c0.9,0,1.7-0.1,2.4-0.3c0.7-0.2,1.3-0.5,1.8-0.8s0.8-0.8,1.1-1.2c0.3-0.5,0.4-1,0.4-1.5s-0.1-1-0.4-1.5c-0.3-0.5-0.6-0.9-1.1-1.2
			c-0.5-0.4-1.1-0.6-1.8-0.8c-0.7-0.2-1.5-0.3-2.4-0.3h-3.1v7.8h3.1V61.6z"/>
		<path class="st0" d="M108.8,62.5h-4.3v-9.6h4.3c1.1,0,2,0.1,2.9,0.4s1.6,0.6,2.2,1c0.6,0.4,1.1,0.9,1.4,1.5
			c0.3,0.6,0.5,1.2,0.5,1.9c0,0.7-0.2,1.3-0.5,1.9s-0.8,1.1-1.4,1.5c-0.6,0.4-1.3,0.8-2.2,1S110,62.5,108.8,62.5z M105.1,62h3.8
			c1,0,1.9-0.1,2.7-0.4c0.8-0.2,1.5-0.5,2-0.9s1-0.8,1.3-1.4c0.3-0.5,0.4-1,0.4-1.6s-0.1-1.1-0.4-1.6c-0.3-0.5-0.7-1-1.3-1.4
			s-1.2-0.7-2-1c-0.8-0.2-1.7-0.4-2.7-0.4h-3.8V62z M108.8,61.8h-3.3v-8.3h3.3c0.9,0,1.8,0.1,2.5,0.3c0.7,0.2,1.4,0.5,1.9,0.9
			s0.9,0.8,1.2,1.3s0.4,1.1,0.4,1.6c0,0.6-0.1,1.1-0.4,1.6c-0.3,0.5-0.7,0.9-1.2,1.3s-1.1,0.7-1.9,0.9
			C110.7,61.7,109.8,61.8,108.8,61.8z M106.1,61.3h2.8c0.9,0,1.7-0.1,2.3-0.3c0.7-0.2,1.3-0.5,1.7-0.8s0.8-0.7,1-1.1
			s0.3-0.9,0.3-1.4s-0.1-1-0.3-1.4s-0.6-0.8-1-1.2c-0.5-0.3-1-0.6-1.7-0.8c-0.7-0.2-1.5-0.3-2.3-0.3h-2.8V61.3z"/>
	</g>
	<g>
		<path class="st0" d="M123.7,62.2v-9.1h4.7c0.6,0,1.2,0.1,1.7,0.2s0.9,0.3,1.3,0.6c0.4,0.3,0.6,0.5,0.8,0.8c0.2,0.3,0.3,0.7,0.3,1
			c0,0.4-0.1,0.7-0.3,1c-0.2,0.3-0.4,0.6-0.8,0.8c-0.4,0.2-0.8,0.4-1.3,0.6c-0.5,0.1-1.1,0.2-1.7,0.2h-3.7v3.8L123.7,62.2
			L123.7,62.2z M128.4,57.8c0.4,0,0.9,0,1.2-0.1c0.4-0.1,0.7-0.2,1-0.4c0.3-0.2,0.5-0.4,0.6-0.6s0.2-0.5,0.2-0.8s-0.1-0.5-0.2-0.8
			c-0.1-0.2-0.3-0.5-0.6-0.6c-0.3-0.2-0.6-0.3-1-0.4s-0.8-0.1-1.2-0.1h-3.7v4h3.7V57.8z"/>
		<path class="st0" d="M125,62.5h-1.5v-9.6h5c0.7,0,1.3,0.1,1.8,0.2s1,0.3,1.3,0.6c0.4,0.3,0.7,0.6,0.9,0.9c0.2,0.4,0.3,0.7,0.3,1.1
			s-0.1,0.8-0.3,1.1c-0.2,0.4-0.5,0.7-0.9,0.9c-0.4,0.3-0.8,0.5-1.3,0.6s-1.1,0.2-1.8,0.2H125V62.5z M124,62h0.5v-3.8h4
			c0.6,0,1.2-0.1,1.6-0.2c0.5-0.1,0.9-0.3,1.2-0.5c0.3-0.2,0.6-0.5,0.7-0.8c0.2-0.3,0.2-0.6,0.2-0.9s-0.1-0.6-0.2-0.9
			c-0.2-0.3-0.4-0.5-0.7-0.7c-0.3-0.2-0.7-0.4-1.2-0.5s-1-0.2-1.6-0.2H124V62z M128.4,58h-4v-4.5h4c0.5,0,0.9,0.1,1.3,0.2
			s0.7,0.3,1,0.4c0.3,0.2,0.5,0.4,0.7,0.7c0.2,0.3,0.2,0.6,0.2,0.9s-0.1,0.6-0.2,0.9c-0.2,0.3-0.4,0.5-0.7,0.7
			c-0.3,0.2-0.6,0.3-1,0.4C129.3,58,128.9,58,128.4,58z M125,57.5h3.5c0.4,0,0.8,0,1.2-0.1c0.3-0.1,0.6-0.2,0.9-0.4
			c0.2-0.2,0.4-0.3,0.5-0.5s0.2-0.4,0.2-0.7c0-0.2-0.1-0.5-0.2-0.7s-0.3-0.4-0.5-0.5c-0.2-0.2-0.5-0.3-0.9-0.4
			c-0.3-0.1-0.7-0.1-1.2-0.1H125V57.5z"/>
	</g>
	<g>
		<path class="st0" d="M142.6,62.2l-4-3.8h-2.9v3.8h-1v-9.1h4.7c0.6,0,1.1,0.1,1.6,0.2s0.9,0.3,1.3,0.5c0.4,0.2,0.7,0.5,0.9,0.8
			c0.2,0.3,0.3,0.7,0.3,1.1s-0.1,0.8-0.3,1.1c-0.2,0.3-0.5,0.6-0.8,0.8c-0.3,0.2-0.7,0.4-1.2,0.5s-0.9,0.2-1.5,0.2
			c0.7,0.6,1.3,1.3,2,1.9c0.7,0.6,1.4,1.3,2,1.9L142.6,62.2L142.6,62.2z M139.4,57.8c0.9,0,1.7-0.2,2.2-0.6s0.8-0.9,0.8-1.4
			c0-0.3-0.1-0.5-0.2-0.8c-0.1-0.3-0.3-0.5-0.6-0.6c-0.3-0.2-0.6-0.3-1-0.4s-0.8-0.1-1.2-0.1h-3.7v4L139.4,57.8L139.4,57.8z"/>
		<path class="st0" d="M144.5,62.5h-2l-4-3.8H136v3.8h-1.5v-9.6h4.9c0.6,0,1.1,0.1,1.6,0.2s1,0.3,1.4,0.5s0.7,0.5,1,0.9
			c0.2,0.4,0.4,0.8,0.4,1.3c0,0.4-0.1,0.9-0.3,1.2c-0.2,0.3-0.5,0.6-0.9,0.9c-0.4,0.2-0.8,0.4-1.3,0.6c-0.3,0.1-0.6,0.1-1,0.2
			c0.5,0.5,1.1,1,1.6,1.5c0.7,0.6,1.4,1.3,2,1.9L144.5,62.5z M142.6,62h0.5c-0.5-0.5-1-1-1.6-1.5c-0.7-0.6-1.4-1.3-2-1.9l-0.4-0.4
			h0.6c0.5,0,1-0.1,1.4-0.2s0.8-0.3,1.1-0.5c0.3-0.2,0.5-0.5,0.7-0.7c0.2-0.3,0.3-0.6,0.3-1s-0.1-0.7-0.3-1
			c-0.2-0.3-0.5-0.5-0.8-0.7c-0.3-0.2-0.7-0.4-1.2-0.5s-1-0.2-1.5-0.2H135V62h0.5v-3.8h3.2L142.6,62z M139.4,58h-4v-4.5h4
			c0.5,0,0.9,0.1,1.3,0.2s0.7,0.3,1,0.4c0.3,0.2,0.5,0.4,0.7,0.7c0.2,0.3,0.2,0.6,0.2,0.9c0,0.7-0.3,1.2-0.9,1.6
			C141.1,57.8,140.4,58,139.4,58z M136,57.5h3.5c0.9,0,1.6-0.2,2.1-0.5s0.7-0.7,0.7-1.2c0-0.2-0.1-0.5-0.2-0.7
			c-0.1-0.2-0.3-0.4-0.5-0.5c-0.2-0.2-0.5-0.3-0.9-0.4c-0.3-0.1-0.7-0.1-1.2-0.1H136V57.5z"/>
	</g>
	<g>
		<path class="st0" d="M152.1,62.4c-1,0-1.9-0.1-2.7-0.4c-0.8-0.2-1.5-0.6-2-1s-1-0.9-1.3-1.5c-0.3-0.6-0.5-1.2-0.5-1.8
			c0-0.7,0.2-1.3,0.5-1.8c0.3-0.6,0.7-1.1,1.3-1.5s1.2-0.8,2-1c0.8-0.2,1.7-0.4,2.7-0.4s1.8,0.1,2.6,0.4c0.8,0.2,1.5,0.6,2,1
			s1,0.9,1.3,1.5c0.3,0.6,0.5,1.2,0.5,1.8c0,0.7-0.2,1.3-0.5,1.8c-0.3,0.6-0.7,1.1-1.3,1.5s-1.2,0.8-2,1
			C154.1,62.3,153.1,62.4,152.1,62.4z M152.1,61.7c0.8,0,1.6-0.1,2.2-0.3c0.7-0.2,1.2-0.5,1.7-0.8c0.5-0.4,0.8-0.8,1.1-1.3
			c0.3-0.5,0.4-1,0.4-1.6s-0.1-1.1-0.4-1.6s-0.6-0.9-1.1-1.3s-1-0.6-1.7-0.8c-0.7-0.2-1.4-0.3-2.2-0.3c-0.8,0-1.6,0.1-2.2,0.3
			c-0.7,0.2-1.2,0.5-1.7,0.8s-0.8,0.8-1.1,1.3c-0.3,0.5-0.4,1-0.4,1.6s0.1,1.1,0.4,1.6c0.3,0.5,0.6,0.9,1.1,1.3s1,0.6,1.7,0.8
			C150.6,61.6,151.4,61.7,152.1,61.7z"/>
		<path class="st0" d="M152.1,62.6c-1,0-1.9-0.1-2.7-0.4c-0.8-0.3-1.5-0.6-2.1-1s-1-1-1.4-1.6c-0.3-0.6-0.5-1.3-0.5-2s0.2-1.3,0.5-2
			c0.3-0.6,0.8-1.1,1.4-1.6c0.6-0.4,1.3-0.8,2.1-1c0.8-0.3,1.7-0.4,2.7-0.4s1.9,0.1,2.7,0.4c0.8,0.3,1.5,0.6,2.1,1s1.1,1,1.4,1.6
			s0.5,1.3,0.5,2s-0.2,1.3-0.5,1.9c-0.3,0.6-0.8,1.1-1.4,1.6c-0.6,0.4-1.3,0.8-2.1,1C154.1,62.5,153.1,62.6,152.1,62.6z M152.1,53.2
			c-1,0-1.8,0.1-2.6,0.4c-0.8,0.2-1.4,0.6-1.9,1s-0.9,0.9-1.2,1.4c-0.3,0.5-0.4,1.1-0.4,1.7s0.1,1.2,0.4,1.7s0.7,1,1.2,1.4
			s1.2,0.7,1.9,1c0.8,0.2,1.6,0.4,2.6,0.4c0.9,0,1.8-0.1,2.6-0.4c0.8-0.2,1.4-0.6,2-1c0.5-0.4,0.9-0.9,1.2-1.4
			c0.3-0.5,0.4-1.1,0.4-1.7s-0.1-1.2-0.4-1.7c-0.3-0.5-0.7-1-1.2-1.4s-1.2-0.7-2-1C154,53.4,153.1,53.2,152.1,53.2z M152.1,62
			c-0.9,0-1.6-0.1-2.3-0.3c-0.7-0.2-1.3-0.5-1.8-0.9s-0.9-0.8-1.1-1.4c-0.3-0.5-0.4-1.1-0.4-1.7s0.1-1.2,0.4-1.7
			c0.3-0.5,0.7-1,1.2-1.4s1.1-0.7,1.8-0.9c0.7-0.2,1.5-0.3,2.3-0.3c0.8,0,1.6,0.1,2.3,0.3c0.7,0.2,1.3,0.5,1.8,0.9s0.9,0.8,1.2,1.4
			c0.3,0.5,0.4,1.1,0.4,1.7s-0.1,1.2-0.4,1.7s-0.7,1-1.2,1.4s-1.1,0.7-1.8,0.9C153.8,61.9,153.1,62,152.1,62z M152.1,53.9
			c-0.8,0-1.5,0.1-2.2,0.3c-0.6,0.2-1.2,0.5-1.6,0.8s-0.8,0.7-1,1.2c-0.2,0.5-0.4,1-0.4,1.5s0.1,1,0.4,1.5c0.2,0.5,0.6,0.9,1,1.2
			c0.4,0.3,1,0.6,1.6,0.8c0.6,0.2,1.4,0.3,2.2,0.3c0.8,0,1.5-0.1,2.1-0.3c0.6-0.2,1.2-0.5,1.6-0.8s0.8-0.7,1-1.2
			c0.2-0.5,0.3-1,0.3-1.5s-0.1-1.1-0.3-1.5c-0.2-0.5-0.6-0.9-1-1.2c-0.4-0.3-1-0.6-1.6-0.8S153,53.9,152.1,53.9z"/>
	</g>
	<g>
		<path class="st0" d="M161.5,62.2v-9.1h4.1c1,0,2,0.1,2.8,0.4c0.8,0.2,1.5,0.6,2.1,1s1,0.9,1.3,1.4c0.3,0.5,0.5,1.1,0.5,1.7
			s-0.2,1.2-0.5,1.7c-0.3,0.5-0.7,1-1.3,1.4s-1.3,0.7-2.1,1c-0.8,0.2-1.8,0.4-2.8,0.4L161.5,62.2L161.5,62.2z M165.6,61.6
			c0.9,0,1.7-0.1,2.4-0.3c0.7-0.2,1.3-0.5,1.8-0.8s0.8-0.8,1.1-1.2c0.3-0.5,0.4-1,0.4-1.5s-0.1-1-0.4-1.5s-0.6-0.9-1.1-1.2
			c-0.5-0.4-1.1-0.6-1.8-0.8c-0.7-0.2-1.5-0.3-2.4-0.3h-3.1v7.8h3.1V61.6z"/>
		<path class="st0" d="M165.6,62.5h-4.3v-9.6h4.3c1.1,0,2,0.1,2.9,0.4s1.6,0.6,2.2,1c0.6,0.4,1.1,0.9,1.4,1.5
			c0.3,0.6,0.5,1.2,0.5,1.9c0,0.7-0.2,1.3-0.5,1.9c-0.3,0.6-0.8,1.1-1.4,1.5s-1.3,0.8-2.2,1S166.6,62.5,165.6,62.5z M161.6,62h3.8
			c1,0,1.9-0.1,2.7-0.4c0.8-0.2,1.5-0.5,2-0.9s1-0.8,1.3-1.4c0.3-0.5,0.4-1,0.4-1.6s-0.1-1.1-0.4-1.6c-0.3-0.5-0.7-1-1.3-1.4
			s-1.2-0.7-2-1c-0.8-0.2-1.7-0.4-2.7-0.4h-3.8V62z M165.6,61.8h-3.3v-8.3h3.3c0.9,0,1.8,0.1,2.5,0.3c0.7,0.2,1.4,0.5,1.9,0.9
			s0.9,0.8,1.2,1.3c0.3,0.5,0.4,1.1,0.4,1.6c0,0.6-0.1,1.1-0.4,1.6s-0.7,0.9-1.2,1.3s-1.1,0.7-1.9,0.9
			C167.3,61.7,166.5,61.8,165.6,61.8z M162.6,61.3h2.8c0.9,0,1.7-0.1,2.3-0.3c0.7-0.2,1.3-0.5,1.7-0.8s0.8-0.7,1-1.1
			c0.2-0.4,0.3-0.9,0.3-1.4s-0.1-1-0.3-1.4c-0.2-0.4-0.6-0.8-1-1.2c-0.5-0.3-1-0.6-1.7-0.8c-0.7-0.2-1.5-0.3-2.3-0.3h-2.8V61.3z"/>
	</g>
	<g>
		<path class="st0" d="M180.1,62.4c-1.7,0-2.9-0.3-3.8-1c-0.9-0.6-1.3-1.5-1.3-2.7v-5.6h1v5.6c0,0.9,0.3,1.7,1,2.2
			c0.7,0.5,1.7,0.8,3,0.8c1.3,0,2.3-0.3,3-0.8c0.7-0.5,1.1-1.3,1.1-2.2v-5.6h1v5.6c0,1.1-0.4,2-1.3,2.7
			C183.1,62.1,181.9,62.4,180.1,62.4z"/>
		<path class="st0" d="M180.1,62.6c-1.7,0-3-0.3-3.9-1s-1.4-1.7-1.4-2.9v-5.8h1.5v5.8c0,0.9,0.3,1.5,0.9,2c0.6,0.5,1.6,0.7,2.9,0.7
			c1.3,0,2.2-0.2,2.9-0.7c0.6-0.5,1-1.1,1-2v-5.8h1.5v5.8c0,1.2-0.5,2.2-1.4,2.9C183.1,62.3,181.9,62.6,180.1,62.6z M175.4,53.4v5.3
			c0,1.1,0.4,1.9,1.2,2.5c0.8,0.6,2,0.9,3.6,0.9s2.8-0.3,3.6-0.9c0.8-0.6,1.2-1.4,1.2-2.5v-5.3h-0.5v5.3c0,1-0.4,1.8-1.2,2.4
			c-0.7,0.6-1.8,0.8-3.2,0.8s-2.5-0.3-3.2-0.8c-0.8-0.6-1.1-1.4-1.1-2.4v-5.3H175.4z"/>
	</g>
	<g>
		<path class="st0" d="M194.8,62.4c-0.9,0-1.8-0.1-2.6-0.3c-0.8-0.2-1.5-0.5-2.1-1c-0.6-0.4-1.1-0.9-1.4-1.5s-0.5-1.2-0.5-1.9
			c0-0.7,0.2-1.3,0.5-1.9c0.4-0.6,0.8-1.1,1.4-1.5c0.6-0.4,1.3-0.7,2.1-1c0.8-0.2,1.7-0.3,2.6-0.3c1,0,1.9,0.1,2.7,0.4
			c0.8,0.3,1.5,0.6,2.2,1.2l-0.8,0.4c-0.5-0.4-1.1-0.7-1.8-1c-0.7-0.2-1.5-0.4-2.3-0.4c-0.8,0-1.5,0.1-2.2,0.3
			c-0.7,0.2-1.3,0.5-1.8,0.8c-0.5,0.4-0.9,0.8-1.2,1.3c-0.3,0.5-0.4,1.1-0.4,1.7s0.1,1.1,0.4,1.6c0.3,0.5,0.7,0.9,1.2,1.3
			s1.1,0.6,1.8,0.8c0.7,0.2,1.4,0.3,2.2,0.3c0.8,0,1.5-0.1,2.3-0.4c0.7-0.2,1.3-0.6,1.8-1l0.8,0.4c-0.7,0.5-1.4,0.9-2.2,1.2
			C196.6,62.2,195.8,62.4,194.8,62.4z"/>
		<path class="st0" d="M194.8,62.6c-1,0-1.9-0.1-2.7-0.3c-0.8-0.2-1.6-0.6-2.2-1s-1.1-1-1.5-1.6s-0.6-1.3-0.6-2s0.2-1.4,0.6-2
			s0.9-1.1,1.5-1.6c0.6-0.4,1.4-0.8,2.2-1c1.7-0.5,3.8-0.5,5.4,0.1c0.8,0.3,1.6,0.7,2.3,1.2l0.3,0.2l-1.2,0.7l-0.1-0.1
			c-0.5-0.4-1-0.7-1.7-0.9c-1.4-0.5-3-0.4-4.3-0.1c-0.7,0.2-1.2,0.5-1.7,0.8s-0.9,0.7-1.1,1.2c-0.3,0.5-0.4,1-0.4,1.5
			c0,0.6,0.1,1.1,0.4,1.5c0.3,0.5,0.7,0.9,1.1,1.2c0.5,0.3,1.1,0.6,1.7,0.8c1.3,0.4,3,0.4,4.3-0.1c0.7-0.2,1.3-0.5,1.7-0.9l0.1-0.1
			l1.3,0.7l-0.3,0.2c-0.7,0.5-1.5,0.9-2.3,1.2C196.6,62.5,195.8,62.6,194.8,62.6z M194.8,53.2c-0.9,0-1.8,0.1-2.6,0.3
			c-0.8,0.2-1.5,0.5-2.1,0.9s-1,0.9-1.4,1.4c-0.3,0.5-0.5,1.1-0.5,1.8c0,0.6,0.2,1.2,0.5,1.8c0.3,0.5,0.8,1,1.4,1.4
			c0.6,0.4,1.3,0.7,2.1,0.9c0.8,0.2,1.7,0.3,2.6,0.3s1.8-0.1,2.6-0.4c0.6-0.2,1.3-0.5,1.8-0.9l-0.3-0.2c-0.5,0.4-1.1,0.7-1.8,0.9
			c-1.5,0.5-3.2,0.5-4.6,0.1c-0.7-0.2-1.4-0.5-1.9-0.9s-1-0.8-1.3-1.4c-0.3-0.5-0.5-1.1-0.5-1.8c0-0.6,0.2-1.2,0.5-1.8
			c0.3-0.5,0.7-1,1.3-1.4c0.5-0.4,1.2-0.7,1.9-0.9c1.4-0.4,3.2-0.4,4.6,0.1c0.7,0.2,1.3,0.5,1.8,0.9l0.3-0.2
			c-0.5-0.4-1.1-0.7-1.8-0.9C196.6,53.4,195.6,53.2,194.8,53.2z"/>
	</g>
	<g>
		<path class="st0" d="M205.1,62.2v-8.4h-4.4v-0.6h9.9v0.6h-4.4v8.4H205.1z"/>
		<path class="st0" d="M206.5,62.5H205v-8.4h-4.4V53h10.3v1.1h-4.4V62.5z M205.5,62h0.5v-8.4h4.4v-0.2H201v0.1h4.4V62H205.5z"/>
	</g>
	<g>
		<path class="st0" d="M212.8,62.2v-9.1h1v9.1H212.8z"/>
		<path class="st0" d="M214.1,62.5h-1.5v-9.6h1.5V62.5z M213.1,62h0.5v-8.6h-0.5V62z"/>
	</g>
	<g>
		<path class="st0" d="M222.9,62.4c-1,0-1.9-0.1-2.7-0.4c-0.8-0.2-1.5-0.6-2-1c-0.6-0.4-1-0.9-1.3-1.5s-0.5-1.2-0.5-1.8
			c0-0.7,0.2-1.3,0.5-1.8c0.3-0.6,0.7-1.1,1.3-1.5c0.6-0.4,1.2-0.8,2-1s1.7-0.4,2.7-0.4s1.8,0.1,2.6,0.4c0.8,0.2,1.5,0.6,2,1
			s1,0.9,1.3,1.5s0.5,1.2,0.5,1.8c0,0.7-0.2,1.3-0.5,1.8s-0.7,1.1-1.3,1.5s-1.2,0.8-2,1C224.7,62.3,223.8,62.4,222.9,62.4z
			 M222.9,61.7c0.8,0,1.6-0.1,2.2-0.3c0.7-0.2,1.2-0.5,1.7-0.8c0.5-0.4,0.8-0.8,1.1-1.3c0.3-0.5,0.4-1,0.4-1.6s-0.1-1.1-0.4-1.6
			s-0.6-0.9-1.1-1.3s-1-0.6-1.7-0.8c-0.7-0.2-1.4-0.3-2.2-0.3c-0.8,0-1.6,0.1-2.2,0.3c-0.7,0.2-1.2,0.5-1.7,0.8
			c-0.5,0.4-0.8,0.8-1.1,1.3c-0.3,0.5-0.4,1-0.4,1.6s0.1,1.1,0.4,1.6s0.6,0.9,1.1,1.3s1,0.6,1.7,0.8C221.3,61.6,222,61.7,222.9,61.7
			z"/>
		<path class="st0" d="M222.9,62.6c-1,0-1.9-0.1-2.7-0.4c-0.8-0.3-1.5-0.6-2.1-1s-1-1-1.4-1.6c-0.3-0.6-0.5-1.3-0.5-1.9
			c0-0.7,0.2-1.3,0.5-2c0.3-0.6,0.8-1.1,1.4-1.6c0.6-0.4,1.3-0.8,2.1-1c0.8-0.3,1.7-0.4,2.7-0.4s1.9,0.1,2.7,0.4
			c0.8,0.3,1.5,0.6,2.1,1s1.1,1,1.4,1.6s0.5,1.3,0.5,2s-0.2,1.3-0.5,1.9s-0.8,1.1-1.4,1.6c-0.6,0.4-1.3,0.8-2.1,1
			C224.8,62.5,223.9,62.6,222.9,62.6z M222.9,53.2c-1,0-1.8,0.1-2.6,0.4c-0.8,0.2-1.4,0.6-1.9,1s-0.9,0.9-1.2,1.4
			c-0.3,0.5-0.4,1.1-0.4,1.7s0.1,1.2,0.4,1.7s0.7,1,1.2,1.4s1.2,0.7,1.9,1c0.8,0.2,1.6,0.4,2.6,0.4c0.9,0,1.8-0.1,2.6-0.4
			c0.8-0.2,1.4-0.6,2-1c0.5-0.4,0.9-0.9,1.2-1.4c0.3-0.5,0.4-1.1,0.4-1.7s-0.1-1.2-0.4-1.7s-0.7-1-1.2-1.4s-1.2-0.7-2-1
			C224.7,53.4,223.8,53.2,222.9,53.2z M222.9,62c-0.9,0-1.6-0.1-2.3-0.3c-0.7-0.2-1.3-0.5-1.8-0.9s-0.9-0.8-1.1-1.4
			c-0.3-0.5-0.4-1.1-0.4-1.7s0.1-1.2,0.4-1.7s0.7-1,1.2-1.4s1.1-0.7,1.8-0.9c0.7-0.2,1.5-0.3,2.3-0.3s1.6,0.1,2.3,0.3
			c0.7,0.2,1.3,0.5,1.8,0.9s0.9,0.8,1.2,1.4c0.3,0.5,0.4,1.1,0.4,1.7s-0.1,1.2-0.4,1.7s-0.7,1-1.2,1.4s-1.1,0.7-1.8,0.9
			C224.5,61.9,223.7,62,222.9,62z M222.9,53.9c-0.8,0-1.5,0.1-2.2,0.3c-0.6,0.2-1.2,0.5-1.6,0.8s-0.8,0.7-1,1.2s-0.4,1-0.4,1.5
			s0.1,1,0.4,1.5c0.2,0.5,0.6,0.9,1,1.2c0.4,0.3,1,0.6,1.6,0.8c0.6,0.2,1.4,0.3,2.2,0.3c0.8,0,1.5-0.1,2.1-0.3
			c0.6-0.2,1.2-0.5,1.6-0.8s0.8-0.7,1-1.2s0.3-1,0.3-1.5c0-0.6-0.1-1.1-0.3-1.5c-0.2-0.5-0.6-0.9-1-1.2c-0.4-0.3-1-0.6-1.6-0.8
			S223.7,53.9,222.9,53.9z"/>
	</g>
	<g>
		<path class="st0" d="M241.7,62.2l-8.6-7.9v7.9h-1v-9.1h0.9l8.6,7.8v-7.8h1v9.1H241.7z"/>
		<path class="st0" d="M242.9,62.5h-1.2l-8.3-7.6v7.6h-1.5v-9.6h1.2l0.1,0.1l8.2,7.4v-7.5h1.5L242.9,62.5L242.9,62.5z M241.8,62h0.5
			v-8.6h-0.5v8.1l-9-8.1h-0.5V62h0.5v-8.2L241.8,62z"/>
	</g>
</g>
<g>
	<path class="st0" d="M192.8,41.2c0.3,0.2,0.7,0.3,1.1,0.4c0.4,0.1,0.9,0.1,1.5,0.1h2.4c1.5,0,2.5-0.4,3-1.1
		c0.5-0.7,0.8-1.7,0.8-2.9V2c0-0.8-0.4-1.2-1.3-1.2h-6.1c-0.5,0-0.9,0.1-1.1,0.3c-0.2,0.2-0.3,0.5-0.3,1v24.3h-0.3l-5-7.9l-9.9-15.1
		c-0.4-0.5-0.7-1-0.9-1.3c-0.3-0.4-0.6-0.6-0.9-0.8c-0.3-0.2-0.7-0.3-1.1-0.4c-0.4-0.1-0.9-0.1-1.5-0.1h-2.5c-1.4,0-2.4,0.3-3,0.9
		c-0.5,0.6-0.8,1.7-0.8,3.2v35.5c0,0.5,0.1,0.8,0.3,1c0.2,0.2,0.6,0.3,1,0.3h6.1c0.5,0,0.9-0.1,1.1-0.2c0.2-0.2,0.3-0.5,0.3-1V16.3
		h0.3l5.6,8.7l9.3,14.1c0.4,0.5,0.7,1,0.9,1.3C192.1,40.7,192.5,41,192.8,41.2"/>
	<path class="st0" d="M37.4,42.2c0.4,0,0.7-0.1,0.8-0.4c0.1-0.3,0.1-0.5,0-0.8L26,4.6c-0.2-0.7-0.5-1.3-0.7-1.7
		c-0.2-0.4-0.6-0.8-0.9-1c-0.4-0.2-0.8-0.4-1.2-0.4s-1-0.1-1.7-0.1H18c-0.6,0-1.1,0-1.5,0.1S15.7,1.8,15.3,2c-0.3,0.2-0.6,0.6-0.9,1
		c-0.3,0.4-0.5,0.9-0.7,1.6L1.6,41c-0.1,0.3-0.1,0.6,0,0.8s0.4,0.3,0.8,0.3h6.8c0.5,0,0.9-0.1,1.1-0.3c0.2-0.2,0.4-0.5,0.5-0.8
		l2.3-7.4h13.3l2.3,7.6c0.1,0.4,0.3,0.7,0.6,0.8c0.3,0.1,0.6,0.1,1.1,0.1h7V42.2z M15.2,26.5l2.2-7.4l2.2-8.3H20l2.2,8.3l2.2,7.4
		H15.2z"/>
	<path class="st0" d="M76.1,41.7c0.1-0.3,0.1-0.6,0-0.8l-3-11.6c-0.4-1.4-0.8-2.6-1.3-3.6c-0.5-1.1-1.5-1.9-2.8-2.5l-0.1-0.3
		c1.7-0.9,3.1-2.3,4-4c0.9-1.8,1.4-3.6,1.4-5.6c0-3.6-1.2-6.5-3.5-8.6s-5.6-3.2-9.8-3.2H46.8c-1.4,0-2.3,0.3-2.8,0.9
		s-0.7,1.5-0.7,2.7v36c0,0.5,0.1,0.8,0.3,1c0.2,0.2,0.6,0.3,1,0.3h6.2c0.6,0,1-0.1,1.1-0.2c0.2-0.1,0.2-0.5,0.2-1V25.7h5.7
		c1.7,0,3.1,0.4,4.1,1.1c1,0.7,1.7,2.1,2.2,4l2.6,10.3c0.2,0.6,0.5,0.9,1,1s0.9,0.1,1.3,0.1H75C75.7,42.2,76,42,76.1,41.7 M64,17.2
		c-0.9,0.9-2.2,1.3-3.9,1.3h-7.8V9.2h7.9c1,0,1.9,0.1,2.5,0.4c0.7,0.3,1.2,0.7,1.5,1.1c0.4,0.4,0.6,0.9,0.8,1.5
		c0.2,0.5,0.2,1.1,0.2,1.6C65.3,15.2,64.8,16.3,64,17.2"/>
	<path class="st0" d="M157.4,40c0.6-1,0.9-2.1,0.9-3.5V2.7c0-0.5-0.1-0.8-0.2-1s-0.5-0.2-1.1-0.2h-6.2c-0.5,0-0.8,0.1-1,0.3
		c-0.2,0.2-0.3,0.5-0.3,1v32c-0.5,0.1-1.1,0.2-1.7,0.3c-0.6,0-1.2,0.1-1.8,0.1s-1.1,0-1.5,0.1c-0.5,0-0.8,0-1.1,0
		c-1.9,0-3.4-0.2-4.6-0.6c-1.2-0.4-2.1-0.9-2.8-1.7c-0.7-0.8-1.2-1.8-1.5-2.9c-0.3-1.2-0.4-2.6-0.4-4.2V2.7c0-0.5-0.1-0.8-0.3-1
		c-0.2-0.2-0.6-0.2-1.1-0.2h-6.2c-0.4,0-0.8,0.1-1,0.3s-0.3,0.5-0.3,1l0.1,22.6c0,3.4,0.3,6.2,1,8.5s1.8,4.1,3.3,5.4
		c1.5,1.4,3.5,2.3,5.9,2.9c2.4,0.6,5.3,0.8,8.6,0.8c0.5,0,1.2,0,2,0c0.8,0,1.7,0,2.6-0.1c0.9,0,1.9-0.1,2.8-0.2
		c0.9-0.1,1.8-0.2,2.6-0.4C155.6,41.7,156.8,41,157.4,40"/>
	<path class="st0" d="M242.5,13.8c-0.7-2.5-1.7-4.6-3.2-6.4s-3.4-3.3-5.8-4.4s-5.3-1.6-8.7-1.6h-10.9c-1.4,0-2.3,0.3-2.8,0.9
		c-0.5,0.6-0.7,1.5-0.7,2.7v33.6c0,1.2,0.2,2.1,0.7,2.7c0.5,0.6,1.4,0.8,2.8,0.8h11.5c3.4,0,6.3-0.6,8.6-1.7
		c2.3-1.1,4.2-2.7,5.6-4.6c1.4-1.9,2.4-4.1,3-6.6s0.9-5.1,0.9-7.7C243.4,18.9,243.1,16.3,242.5,13.8 M233.8,26.8
		c-0.3,1.6-0.9,2.9-1.6,4c-0.8,1.1-1.8,2-3.2,2.7c-1.3,0.6-3,1-5,1h-4.7V9.1h4.5c2.1,0,3.8,0.3,5.1,1c1.4,0.6,2.4,1.5,3.2,2.6
		c0.8,1.1,1.4,2.4,1.7,3.9c0.3,1.5,0.5,3.2,0.5,4.9C234.3,23.5,234.1,25.2,233.8,26.8"/>
	<path class="st0" d="M112.8,6.4c-1.5-1.8-3.4-3.2-5.7-4.2c-2.3-1-4.9-1.4-7.9-1.5h-0.1c-2.8,0-5.3,0.5-7.5,1.5
		c-2.2,1-4.1,2.4-5.7,4.2c-1.6,1.8-2.8,4-3.6,6.6S81,18.6,81,21.8c0,6.7,1.5,11.8,4.4,15.5c2.9,3.6,7.4,5.5,13.4,5.5
		c0.1,0,0.2,0,0.2,0c3,0,5.7-0.5,7.9-1.4c2.3-1,4.2-2.3,5.7-4.2c1.5-1.8,2.6-4,3.4-6.6c0.7-2.6,1.1-5.6,1.1-8.9
		c0-3.2-0.4-6.1-1.1-8.7C115.3,10.4,114.3,8.2,112.8,6.4 M107.6,26.8c-0.3,1.6-0.8,3-1.4,4.1c-0.7,1.2-1.6,2.1-2.7,2.9
		c-1.1,0.7-2.5,1.1-4.2,1.1h-0.1c-1.7,0-3.1-0.3-4.2-0.9c-1.1-0.6-2-1.5-2.7-2.7c-0.7-1.2-1.2-2.6-1.5-4.2c-0.3-1.6-0.4-3.5-0.4-5.5
		c0-1.7,0.2-3.4,0.5-4.9c0.4-1.6,0.9-2.9,1.6-4.1c0.7-1.2,1.7-2.1,2.8-2.8c1.1-0.7,2.4-1,3.9-1c1.8,0,3.2,0.4,4.4,1.1
		c1.1,0.7,2,1.7,2.7,2.9c0.7,1.2,1.1,2.6,1.4,4.2c0.3,1.6,0.4,3.3,0.4,5C108,23.6,107.8,25.2,107.6,26.8"/>
</g>
</svg>
